<?xml version="1.0" encoding="UTF-8"?>
<!-- Generator: visioncortex VTracer 0.6.12 -->
<svg version="1.1" xmlns="http://www.w3.org/2000/svg" width="280" height="256">


<path d="M0 0 C5.918032064986363 5.137877178829967 9.532105577818555 11.061888613306124 10.46875 18.9453125 C10.503182048559268 20.33815507970064 10.51280229072026 21.731790712366788 10.5 23.125 C10.496777343750011 23.495686035156254 10.496777343750011 23.495686035156254 10.48046875 25.37158203125 C10.114755050601815 36.552315985877485 5.56865610472218 45.039179869097275 -1.328125 53.66015625 C-2.985582683760043 55.97982249432772 -3.6256777670916165 57.21866842621213 -4 60 C-3.3066406250000284 61.80493164062497 -3.3066406250000284 61.80493164062497 -2.15625 63.66015625 C-1.7373852539062398 64.3618896484375 -1.318520507812508 65.063623046875 -0.886962890625 65.78662109375 C-0.6581140136718773 66.16214111328125 -0.6581140136718773 66.16214111328125 0.5 68.0625 C7.370870322664274 79.86218413647917 18.594343732121217 100.0719180380303 15 114 C12.689999999999998 114 10.379999999999995 114 8 114 C8.330000000000013 115.175625 8.659999999999997 116.35125 9 117.5625 C11.144131380082172 127.20348790760357 10.749291142349477 138.28171587583628 9 148 C8.669999999999987 148.33 8.340000000000003 148.66 8 149 C4.502657724448454 148.6114064138276 1.3421173934103194 148.11403913113676 -2 147 C-2.1095703125000114 147.36931640625 -2.1095703125000114 147.36931640625 -2.6640625 149.23828125 C-6.565850841783146 161.72083175806236 -12.15389759987903 172.23849407768927 -22 181 C-25.00000000000003 181 -25.00000000000003 181 -26.6875 179.5 C-27.12062499999999 179.005 -27.553750000000008 178.51 -28 178 C-28.95261718750001 178.6148828125 -29.905234374999992 179.229765625 -30.88671875 179.86328125 C-32.15361948338838 180.67972838929472 -33.420548041049784 181.49613235412298 -34.6875 182.3125 C-35.313339843749986 182.71662109375 -35.9391796875 183.1207421875 -36.583984375 183.537109375 C-38.385613288489594 184.69732066483886 -40.19230510416551 185.8492712985466 -42 187 C-42.4241015625 187.27328125 -42.4241015625 187.27328125 -44.5703125 188.65625 C-47.37091900741868 190.20513848641806 -50.14468804978543 191.20094854781863 -53.1875 192.1875 C-54.23292968749999 192.5316796875 -55.27835937500001 192.875859375 -56.35546875 193.23046875 C-59.00000000000003 194 -59.00000000000003 194 -61 194 C-61.135351562500006 194.556875 -61.27070312500001 195.11375 -61.41015625 195.6875 C-63.753925145540336 203.99595021652618 -68.10325791123913 209.5474907437141 -75.5625 213.9375 C-83.11448416473627 218.02527124513247 -91.90798332287045 217.2498722471687 -100.25 217.3125 C-101.5223046875 217.34150390625 -102.794609375 217.3705078125 -104.10546875 217.400390625 C-114.14683880403211 217.46774759646667 -122.81411625864384 215.9222001790678 -130.39453125 208.91796875 C-133.62136312675042 205.06304307728843 -138 199.1803502158202 -138 194 C-138.5916796875 193.8904296875 -139.183359375 193.780859375 -139.79296875 193.66796875 C-144.47808373381514 192.72788858195878 -147.96956844126206 191.65159970969603 -152 189 C-153.03125 188.5875 -154.0625 188.175 -155.125 187.75 C-160.42425025476302 185.55274989436654 -165.4199168090996 182.43713295519652 -170 179 C-170 178.34 -170 177.68 -170 177 C-170.5775 177.680625 -171.155 178.36125 -171.75 179.0625 C-174 181 -174 181 -175.90234375 180.859375 C-185.94823785283342 176.74373868226564 -192.04605703942713 161.53043559979318 -195.9375 152.25 C-196.63385848447473 150.50350605179975 -197.32483864591492 148.75479725209212 -198 147 C-198.60457031250002 147.3261328125 -199.209140625 147.652265625 -199.83203125 147.98828125 C-202.39925229966667 149.18631773984444 -204.19756525612593 149.2272244386925 -207 149 C-208.83994092977383 147.16005907022617 -208.13045234330502 144.19905292002667 -208.1328125 141.734375 C-208.13345703125 141.09306640625 -208.13345703125 141.09306640625 -208.13671875 137.84765625 C-208.13567138671874 137.51129150390625 -208.13567138671874 137.51129150390625 -208.13037109375 135.80908203125 C-208.12505838796133 133.77238382117469 -208.130296973917 131.7359097338558 -208.13671875 129.69921875 C-208.1354296875 128.4114453125 -208.134140625 127.12367187500001 -208.1328125 125.796875 C-208.1316845703125 124.61448242187501 -208.130556640625 123.43208984375002 -208.12939453125 122.2138671875 C-208.01405321737684 119.3490501010352 -207.6594560887445 116.78320593561483 -207 114 C-209.31 114 -211.62 114 -214 114 C-217.67263377679524 103.13406972244724 -207.72132825907207 84.25292468190237 -202.869873046875 74.3525390625 C-198.6791255600773 66.01942491881452 -198.6791255600773 66.01942491881452 -196.19921875 62.296875 C-195 60 -195 60 -195.04296875 58.06640625 C-196.42403986495117 55.08442004669729 -198.36153640140844 52.56118288044712 -200.3125 49.9375 C-208.00874396749646 39.073376824867225 -210.14914248614133 29.21513859062538 -209 16 C-207.61276211397114 8.92508678125284 -203.5995932120412 3.923698976910508 -197.875 -0.3125 C-190.481026793667 -4.652440795021544 -179.87016657201647 -4.032636919163327 -171.6875 -2 C-163.13804105830954 1.0199581336319525 -156.68220681245984 7.995984247252657 -150.7890625 14.62890625 C-150.4938671875 14.85513671875 -150.4938671875 14.85513671875 -149 16 C-146.201934065014 15.500516641269474 -143.53545218916622 14.552531709749122 -140.83984375 13.66015625 C-140.442490234375 13.530927734374998 -140.442490234375 13.530927734374998 -138.431640625 12.876953125 C-136.79473554379564 12.342427346721053 -135.15925792983114 11.803506080291989 -133.525390625 11.259765625 C-122.57976559356815 7.722406452853221 -112.24020050630233 6.637140646698356 -100.75 6.6875 C-99.46746337890625 6.690964355468751 -98.18492675781249 6.694428710937501 -96.863525390625 6.697998046875 C-87.84333885964281 6.801691521762759 -79.7158406082375 7.588764907873383 -71 10 C-70.47148437499999 10.119882812500002 -70.47148437499999 10.119882812500002 -67.796875 10.7265625 C-61.25086966572667 12.223262212107723 -55.15300399213237 14.318270383960009 -49 17 C-48.86529296875 16.704160156249998 -48.86529296875 16.704160156249998 -48.18359375 15.20703125 C-43.454141695669364 6.388086000175541 -32.399309694243215 -0.5213988753491581 -23.0859375 -3.5625 C-14.942950241283711 -5.270392458756975 -7.1488132844453105 -4.347745046928413 0 0 Z M-197 11 C-200.8983490144277 17.6584939370517 -201.31484269462754 24.45482576775261 -200 32 C-197.50878290616834 40.18187758747213 -192.538620070937 48.4447607840588 -186 54 C-185.34 54 -184.68 54 -184 54 C-185.00107877388973 60.2567423368109 -187.51261626965197 64.79953991545139 -190.75048828125 70.215576171875 C-193.53626176967074 74.97277175650319 -195.79291457435374 79.83524670418552 -197.875 84.9375 C-198.16076904296875 85.63480224609376 -198.4465380859375 86.3321044921875 -198.740966796875 87.050537109375 C-200.96533104760226 92.62512894445591 -203 97.93060340050187 -203 104 C-201.01999999999998 104.33 -199.04 104.66 -197 105 C-197.06638671874998 105.3622265625 -197.06638671874998 105.3622265625 -197.40234375 107.1953125 C-197.5789453125 108.162109375 -197.755546875 109.12890625 -197.9375 110.125 C-198.1115234375 111.076328125 -198.285546875 112.02765625 -198.46484375 113.0078125 C-198.6414453125 113.995234375 -198.818046875 114.98265624999999 -199 116 C-199.18562500000002 116.94875000000002 -199.37125 117.89749999999998 -199.5625 118.875 C-200.077907477661 122.55648198329283 -200.109197969087 126.16789968478392 -200.0625 129.875 C-200.060244140625 130.2191796875 -200.060244140625 130.2191796875 -200.048828125 131.9609375 C-200.03716336213347 133.6406633527795 -200.01923270512566 135.3203437523582 -200 137 C-198.185 136.67000000000002 -198.185 136.67000000000002 -189 135 C-189.103125 136.19625 -189.20625 137.3925 -189.3125 138.625 C-189.27763140016296 149.69578044826102 -183.73986245381616 159.57031612404552 -177 168 C-176.55720703125002 167.796328125 -176.55720703125002 167.796328125 -174.31640625 166.765625 C-171 166 -171 166 -168.40234375 167.484375 C-167.99564453125 167.858203125 -167.99564453125 167.858203125 -165.9375 169.75 C-162.71739761555406 172.65979236003645 -160.1367531480252 174.61370839246214 -156 176 C-156.1637109375 175.162109375 -156.327421875 174.32421875 -156.49609375 173.4609375 C-157.02987282890552 169.794826927052 -157.09743024671653 166.32760615195087 -157.0625 162.625 C-157.0534765625 161.379765625 -157.044453125 160.13453125 -157.03515625 158.8515625 C-157.0235546875 157.910546875 -157.011953125 156.96953125 -157 156 C-155.3438534264267 155.6178123291754 -153.67542975631227 155.28604898278502 -152 155 C-150.21844963479916 156.78155036520084 -150.8281484103286 159.5885633384322 -150.75 162 C-150.18658036321943 170.02872982412327 -147.64281273707803 174.89469503393332 -142.5 180.9375 C-137.05764926027013 185.42743936027713 -131.84355990577308 185.6463932144883 -125 185 C-117.37493725024638 183.43284547975702 -108.51605743524595 179.51605743524595 -103 174 C-102.08833263451913 170.4954505171064 -102.06759142382157 167.50075855937567 -103 164 C-105.91223389213653 160.7504008310082 -109.38781827868661 158.7047394810923 -113.125 156.5 C-114.076328125 155.894140625 -115.02765625 155.28828125 -116.0078125 154.6640625 C-119.72103204854264 152.34330028216084 -123.05403443255905 150.28836441013772 -127.26123046875 149.005859375 C-128.1650244140625 148.67392578125 -129.068818359375 148.3419921875 -130 148 C-130.92923976908054 145.21228069275838 -131.14867338188782 143.41765752372172 -131.205322265625 140.528564453125 C-131.21529487609862 140.07821083068848 -131.21529487609862 140.07821083068848 -131.26576232910156 137.7991485595703 C-131.28247482299804 136.8303123474121 -131.29918731689452 135.8614761352539 -131.31640625 134.86328125 C-131.3371873474121 133.86870407104493 -131.35796844482422 132.87412689208986 -131.37937927246094 131.8494110107422 C-131.44479412384823 128.6705113295523 -131.5037223966049 125.49152866362678 -131.5625 122.3125 C-131.60569287844783 120.15819452326019 -131.6493074180367 118.00389745623414 -131.693359375 115.849609375 C-131.8004672602456 110.56649411936175 -131.9022487292646 105.28329620925682 -132 100 C-132.309375 100.1546875 -132.309375 100.1546875 -133.875 100.9375 C-137.60209176988593 102.80104588494298 -139.7406500884619 103.4175833246606 -144 103 C-146.8125 101.4375 -146.8125 101.4375 -149 99 C-149.8125 95.24999999999999 -149.8125 95.24999999999999 -150 92 C-150.99 91.67 -151.98 91.34 -153 91 C-153.6875 88.93750000000001 -153.6875 88.93750000000001 -154 87 C-147.64047700440932 85.07954998648005 -139.6756210956968 84.66391450367583 -133.41015625 86.94140625 C-129.50239376885648 89.26277725835155 -126.77218055160907 91.72591749317814 -125 96 C-123.91591757724572 101.11005175960192 -123.78645540174838 106.1355139429022 -123.68359375 111.3359375 C-123.66494262695312 112.11622314453125 -123.64629150390626 112.8965087890625 -123.6270751953125 113.700439453125 C-123.55920887792529 116.59185369576278 -123.49878615962837 119.4834388012352 -123.4375 122.375 C-123.3653125 125.613125 -123.3653125 125.613125 -123 142 C-107.49000000000001 142 -91.97999999999999 142 -76 142 C-75.8125 121.06249999999929 -75.8125 121.06249999999929 -75.792236328125 114.508056640625 C-75.76575818614981 112.76705952633462 -75.73747387376409 111.02608855501023 -75.70703125 109.28515625 C-75.71101928710937 108.40275268554687 -75.71500732421873 107.52034912109374 -75.7191162109375 106.6112060546875 C-75.57098717945519 100.05445168569985 -73.85627631074217 95.32911822577863 -70 90 C-65.40621652161883 85.83548220230436 -61.72465056773251 85.4179385054619 -55.8125 85.625 C-55.10158203124999 85.6262890625 -54.39066406250001 85.627578125 -53.658203125 85.62890625 C-49.92730019637912 85.69208240495313 -48.1707797180043 85.8861468546638 -45 88 C-45 88.99 -45 89.98 -45 91 C-45.99000000000001 91.33 -46.97999999999999 91.66 -48 92 C-48.68939808613845 94.32671854071728 -49.35466922363261 96.66067593566818 -50 99 C-51.61289162222437 101.01611452778045 -52.701994356427576 101.85099717821379 -55 103 C-59.671810157824154 103.41527201402882 -62.17508513042944 102.69993990793215 -66 100 C-67.14478311283278 102.2895662256656 -67.12439976976287 103.56695898723927 -67.1259765625 106.11083984375 C-67.12787994384766 106.53475509643555 -67.12787994384766 106.53475509643555 -67.13751220703125 108.68002319335938 C-67.1380258178711 109.13887405395508 -67.1380258178711 109.13887405395508 -67.140625 111.4609375 C-67.15895045681296 113.39584512911563 -67.17852052482135 115.33074129831357 -67.19921875 117.265625 C-67.22821756150756 120.32278784028762 -67.25000067208936 123.37921400021037 -67.25048828125 126.4365234375 C-67.25381797854544 129.38282987292956 -67.28833740817475 132.32742717606118 -67.328125 135.2734375 C-67.32105529785156 136.18709075927734 -67.31398559570312 137.10074401855468 -67.30670166015625 138.04208374023438 C-67.42873251518174 144.39165607598707 -67.42873251518174 144.39165607598707 -70.305908203125 147.45556640625 C-71.19495849609376 147.9652294921875 -72.0840087890625 148.474892578125 -73 149 C-73.64058349609374 149.4318359375 -74.28116699218751 149.863671875 -74.941162109375 150.30859375 C-75.54710205078123 150.6811328125 -76.1530419921875 151.053671875 -76.77734375 151.4375 C-77.45603515624998 151.857734375 -78.13472656250002 152.27796875 -78.833984375 152.7109375 C-79.181064453125 152.9236328125 -79.181064453125 152.9236328125 -80.9375 154 C-82.9926133856776 155.26645642814864 -85.0458535086459 156.53484699637013 -87.089599609375 157.819580078125 C-88.84668662722126 158.90526898947155 -90.64080645704928 159.93041184325864 -92.4375 160.94921875 C-95 163 -95 163 -95.97265625 165.76953125 C-96.07237983403178 169.14712568307687 -95.98949224829181 171.75548464508606 -95 175 C-91.7727385634885 178.29054107252153 -88.16225125695541 180.0969385964188 -84 182 C-83.34515625 182.358359375 -82.6903125 182.71671875 -82.015625 183.0859375 C-75.60942856140906 186.1756517115328 -67.88175868691025 186.03038354110024 -61 185 C-55.3296310973239 182.27108183244525 -51.94202383610306 177.38154296665843 -49.67578125 171.62109375 C-48.35557825822778 166.50053763740374 -48.162806819936776 161.26680062495487 -48 156 C-45.62499999999994 155.375 -45.62499999999994 155.375 -43 155 C-41 157 -41 157 -40.76953125 159.828125 C-40.78371093749999 160.95734375 -40.79789062500001 162.0865625 -40.8125 163.25 C-40.81572265624999 163.809453125 -40.81572265624999 163.809453125 -40.83203125 166.640625 C-40.991801817420765 169.83603634841543 -41.405186467637634 172.8593845491267 -42 176 C-37.27996468546118 173.49549146575492 -33.466245085720544 170.84196966035304 -29.578125 167.171875 C-27.99999999999997 166 -27.99999999999997 166 -25 166 C-24.669999999999987 166.66 -24.340000000000003 167.32 -24 168 C-17.910319356514435 165.36070923485298 -15.949336829646938 160.37852970706624 -13.5703125 154.41796875 C-11.222067557052668 147.93948895604524 -9.288757105987031 141.97018036132698 -10 135 C-6.3700000000000045 135.66 -2.740000000000009 136.32 1 137 C1.2965746207281086 127.72929704094372 1.3579078255166905 119.30082323481935 -1.34375 110.3203125 C-2 108 -2 108 -2 105 C-0.8449999999999989 104.83500000000001 -0.8449999999999989 104.83500000000001 5 104 C2.3882446121451437 89.23007297902765 -4.583859379028468 74.9678326894579 -12.78515625 62.5078125 C-14.295805515690688 59.38936610587325 -14.482737766818502 57.425139393140824 -14 54 C-12.460937500000028 52.05078125000003 -12.460937500000028 52.05078125000003 -10.375 50.3125 C-3.779301511226066 44.23227350679632 0.49374766392500646 36.56236743940627 1.30859375 27.609375 C1.5499411993526735 20.383578637562273 1.6634609310593476 15.075426671036755 -3.39453125 9.41796875 C-8.203010067724364 5.171064100768987 -12.248791174545147 5.518586489878658 -18.4296875 5.6328125 C-27.87584846033019 6.604299513425644 -34.54532852084736 13.512227641467106 -41 20 C-42.09978753624753 21.361874989206306 -43.18552661271326 22.735348058372395 -44.25 24.125 C-45.1575 25.073750000000004 -46.065 26.0225 -47 27 C-51.879605368560334 26.744671812110212 -56.24905262550044 24.90136384597129 -60.75 23.125 C-73.70156915344043 18.150470577012868 -84.77880355532238 15.820452370751674 -98.6875 15.8125 C-99.24147460937499 15.806376953125 -99.24147460937499 15.806376953125 -102.044921875 15.775390625 C-112.98793171642902 15.756203582612926 -123.05122405906477 17.323268034787223 -133.375 20.9375 C-133.75205078125 21.063505859375 -133.75205078125 21.063505859375 -135.66015625 21.701171875 C-139.0441049293949 22.855730281320604 -142.07233668481288 24.039321030848647 -145.2265625 25.75390625 C-148 27 -148 27 -150.64453125 26.9765625 C-153.73427383396938 25.695574695700913 -154.78465411008403 24.10750320851271 -156.6875 21.375 C-162.02802236597884 14.31824171300715 -168.8698531921882 9.477107674662658 -177 6 C-184.91940019869998 4.920081791086368 -191.75589813693063 4.480305791859713 -197 11 Z " fill="#0B5D63" transform="translate(239,14)"/>
<path d="M0 0 C0 0.33000000000000007 0 0.6600000000000001 0 1 C-1.9799999999999898 1.33 -3.960000000000008 1.6600000000000001 -6 2 C-5.670000000000016 2.33 -5.670000000000016 2.33 -4 4 C-5.874999999999972 5.062499999999991 -5.874999999999972 5.062499999999991 -8 6 C-8.329999999999984 5.835000000000001 -8.329999999999984 5.835000000000001 -10 5 C-10 4.34 -10 3.6799999999999997 -10 3 C-10.990000000000009 3.33 -11.97999999999999 3.66 -13 4 C-12.669999999999987 4.99 -12.340000000000003 5.98 -12 7 C-12.659999999999997 7.66 -13.319999999999993 8.32 -14 9 C-13.340000000000003 8.814374999999998 -12.680000000000007 8.62875 -12 8.4375 C-8.10669886086086 7.869726917208872 -4.886245212176249 8.407182933735825 -1 9 C-1 9.329999999999998 -1 9.66 -1 10 C-1.6896484375000114 10.0141796875 -2.3792968749999943 10.028359375 -3.08984375 10.04296875 C-15.307526004134644 10.663070592802445 -22.547684899541537 16.50433969389816 -31 25 C-32.09978753624753 26.361874989206306 -33.18552661271326 27.735348058372395 -34.25 29.125 C-35.1575 30.073750000000004 -36.065 31.0225 -37 32 C-41.87960536856028 31.74467181211022 -46.2490526255005 29.901363845971275 -50.75 28.125 C-63.70156915344043 23.150470577012868 -74.77880355532236 20.820452370751674 -88.6875 20.8125 C-89.24147460937499 20.806376953125 -89.24147460937499 20.806376953125 -92.044921875 20.775390625 C-102.98793171642903 20.756203582612923 -113.05122405906475 22.32326803478722 -123.375 25.9375 C-124.1291015625 26.189511718749998 -124.883203125 26.441523437499995 -125.66015625 26.701171875 C-129.0441049293949 27.855730281320604 -132.07233668481288 29.039321030848647 -135.2265625 30.75390625 C-138 32 -138 32 -140.6171875 32.0078125 C-143.87277579609298 30.630858761652476 -145.07544582750265 28.73502426352293 -147.125 25.875 C-151.6591104394551 20.034579685190995 -156.53731843645664 16.490865789441532 -163 13 C-163.62390625 12.6171484375 -164.2478125 12.234296874999998 -164.890625 11.83984375 C-167.93235242788347 10.628785607416766 -170.67536240860875 10.659814702149319 -173.9375 10.625 C-175.1427734375 10.596640625 -176.348046875 10.568281249999998 -177.58984375 10.5390625 C-181.67965453054939 11.091866248115494 -183.16704694082586 12.034021318916807 -186 15 C-190.06983767755733 21.454368122998396 -190.30421395667196 28.59264117426102 -189 36 C-186.52673228320447 43.97208623277784 -181.87128971482372 51.12871028517627 -176 57 C-175.34 57.33 -174.68 57.66 -174 58 C-173.4527077094973 63.481342786419305 -175.25920058601147 66.79944657118214 -178.0625 71.3125 C-184.84950984095505 82.79934616052333 -190.0416331716441 94.95501103305921 -193 108 C-191.01999999999998 108 -189.04 108 -187 108 C-185.62110293119872 111.77817796851546 -186.41087433980488 114.47811033307725 -187.375 118.3125 C-189.11986089021266 125.88949866023853 -189.6846320241513 133.2354229394493 -190 141 C-189.29874999999998 140.67 -188.5975 140.34 -187.875 140 C-184.73996883970474 138.90955437902772 -182.29436818400714 138.84677357283687 -179 139 C-178.9136328125 139.72703125 -178.827265625 140.4540625 -178.73828125 141.203125 C-177.17777844464794 152.37002580894136 -173.27523485140938 161.67679393504892 -167 171 C-166.5578515625 170.796328125 -166.5578515625 170.796328125 -164.3203125 169.765625 C-161 169 -161 169 -158.3671875 170.484375 C-157.95597656249998 170.858203125 -157.95597656249998 170.858203125 -155.875 172.75 C-153.00944849230373 175.30310819688827 -150.53773114898334 177.46752659905792 -147 179 C-147.1611328125 178.3232421875 -147.322265625 177.646484375 -147.48828125 176.94921875 C-148.08139951690316 173.53086537968017 -148.1692238407675 170.2813150223277 -148.1875 166.8125 C-148.2016796875 165.5814453125 -148.215859375 164.350390625 -148.23046875 163.08203125 C-148 160 -148 160 -146 158 C-141.44444444444449 158.55555555555551 -141.44444444444449 158.55555555555551 -140 160 C-139.89291772475104 161.99886913798076 -139.8148370149961 163.99931496583525 -139.75 166 C-139.37556700121175 171.67890048162172 -138.239333048688 175.44521361684698 -135.15625 180.1953125 C-134 182.00000000000003 -134 182.00000000000003 -133 185 C-127.94468895305913 187.2035971230255 -122.3988416047624 187.99705314061725 -117 189 C-117 189.33 -117 189.66 -117 190 C-118.98 190 -120.96 190 -123 190 C-123 190.66 -123 191.32 -123 192 C-123.66 192 -124.32 192 -125 192 C-121.82192322137715 195.17807677862285 -119.86311622941075 195.9268545568296 -115.3125 196.3125 C-107.07096347971301 196.05400162205743 -100.47234027186306 192.34266507921416 -93.578125 188.109375 C-90.47778222691738 186.77528810976443 -89.16020267528285 186.92078045893118 -86 188 C-84.21874999999994 189.05078125000006 -84.21874999999994 189.05078125000006 -82.5 190.3125 C-76.0698210210063 194.54611020563516 -68.40962022320372 196.20154848951367 -61 198 C-61.08109743380112 200.75731274923777 -61.54789473284205 202.50043616888624 -63.4140625 204.5625 C-71.16272599704766 211.38951629695828 -77.65083946581797 212.53525998255438 -87.83056640625 212.5009765625 C-89.86375208963523 212.50000537277782 -91.89314037845824 212.5416533851516 -93.92578125 212.5859375 C-101.57303274736849 212.6010955802723 -107.18959423415576 212.26409620918488 -113 207 C-113.5618701171875 206.49146484375 -114.123740234375 205.9829296875 -114.70263671875 205.458984375 C-116 204 -116 204 -116 202 C-117.32 202 -118.64 202 -120 202 C-120.99 203.98 -121.98 205.96 -123 208 C-125.0800566719151 205.5417512059185 -125.9821127726232 204.089436136884 -126.625 200.875 C-128 198 -128 198 -129.94921875 197.27734375 C-131.54790102035372 196.96289219599655 -133.15273979266289 196.67849046369014 -134.76171875 196.421875 C-137.6387054702518 195.87961572288447 -139.56825242159624 194.59983393316037 -142 193 C-143.03125 192.5875 -144.0625 192.175 -145.125 191.75 C-150.42425025476302 189.55274989436654 -155.4199168090996 186.43713295519652 -160 183 C-160 182.34 -160 181.68 -160 181 C-160.5775 181.680625 -161.155 182.36125 -161.75 183.0625 C-164 185 -164 185 -165.90234375 184.859375 C-175.94823785283342 180.74373868226564 -182.04605703942713 165.53043559979318 -185.9375 156.25 C-186.63385848447473 154.50350605179975 -187.32483864591492 152.75479725209212 -188 151 C-188.60457031250002 151.3261328125 -189.209140625 151.652265625 -189.83203125 151.98828125 C-192.39925229966667 153.18631773984444 -194.19756525612593 153.2272244386925 -197 153 C-198.83994092977383 151.16005907022617 -198.13045234330502 148.19905292002667 -198.1328125 145.734375 C-198.13345703125 145.09306640625 -198.13345703125 145.09306640625 -198.13671875 141.84765625 C-198.13567138671874 141.51129150390625 -198.13567138671874 141.51129150390625 -198.13037109375 139.80908203125 C-198.12505838796133 137.77238382117469 -198.130296973917 135.7359097338558 -198.13671875 133.69921875 C-198.1354296875 132.4114453125 -198.134140625 131.123671875 -198.1328125 129.796875 C-198.1316845703125 128.614482421875 -198.130556640625 127.43208984375002 -198.12939453125 126.2138671875 C-198.01405321737684 123.3490501010352 -197.6594560887445 120.78320593561483 -197 118 C-199.31 118 -201.62 118 -204 118 C-207.67263377679524 107.13406972244724 -197.72132825907207 88.25292468190237 -192.869873046875 78.3525390625 C-188.6791255600773 70.01942491881452 -188.6791255600773 70.01942491881452 -186.19921875 66.296875 C-185 64 -185 64 -185.04296875 62.06640625 C-186.42403986495117 59.08442004669729 -188.36153640140844 56.56118288044712 -190.3125 53.9375 C-198.00874396749646 43.073376824867225 -200.14914248614133 33.21513859062538 -199 20 C-197.61276211397114 12.92508678125284 -193.5995932120412 7.923698976910508 -187.875 3.6875 C-180.481026793667 -0.6524407950215441 -169.87016657201647 -0.032636919163326894 -161.6875 2 C-153.13804105830954 5.0199581336319525 -146.68220681245984 11.995984247252657 -140.7890625 18.62890625 C-140.4938671875 18.85513671875 -140.4938671875 18.85513671875 -139 20 C-136.201934065014 19.500516641269474 -133.53545218916622 18.552531709749122 -130.83984375 17.66015625 C-130.442490234375 17.530927734375 -130.442490234375 17.530927734375 -128.431640625 16.876953125 C-126.79473554379564 16.342427346721053 -125.15925792983116 15.803506080291989 -123.525390625 15.259765625 C-112.57976559356815 11.722406452853221 -102.24020050630233 10.637140646698356 -90.75 10.6875 C-89.46746337890625 10.69096435546875 -88.18492675781249 10.694428710937501 -86.863525390625 10.697998046875 C-77.84333885964281 10.80169152176276 -69.7158406082375 11.588764907873383 -61 14 C-60.47148437499999 14.119882812500002 -60.47148437499999 14.119882812500002 -57.796875 14.7265625 C-51.25086966572667 16.223262212107723 -45.15300399213237 18.31827038396001 -39 21 C-38.86529296875 20.704160156249998 -38.86529296875 20.704160156249998 -38.18359375 19.20703125 C-33.42899756145653 10.341200073343039 -22.42684967254911 3.6000069714542775 -13.125 0.421875 C-8.789742216847003 -0.43880117753773007 -4.394372111143241 -0.21810302757512368 0 0 Z " fill="#0B5D63" transform="translate(229,10)"/>
<path d="M0 0 C1.9799999999999969 0 3.960000000000001 0 6 0 C6.086367187500002 0.7270312500000102 6.172734374999997 1.454062499999992 6.26171875 2.203125 C7.8222215553520655 13.370025808941364 11.724765148590606 22.67679393504889 18 32 C18.884296875000004 31.592656250000005 19.76859375 31.18531250000001 20.6796875 30.765625 C24 30 24 30 26.6328125 31.484375 C27.455234375000003 32.232031250000006 28.277656250000007 32.97968750000001 29.125 33.75 C31.99055150769628 36.303108196888275 34.462268851016645 38.46752659905789 38 40 C37.8388671875 39.3232421875 37.677734375 38.646484375 37.51171875 37.94921875 C36.91860048309681 34.53086537968011 36.8307761592325 31.28131502232776 36.8125 27.8125 C36.79832031250001 26.581445312499994 36.78414062499999 25.35039062499999 36.76953125 24.08203125 C37 21 37 21 39 19 C43.55555555555556 19.555555555555543 43.55555555555556 19.555555555555543 45 21 C45.10708227524897 22.998869137980762 45.18516298500393 24.999314965835254 45.25 27 C45.62443299878825 32.67890048162167 46.76066695131203 36.44521361684704 49.84375 41.1953125 C51 43 51 43 52 46 C57.05531104694087 48.2035971230255 62.601158395237604 48.997053140617254 68 50 C68 50.329999999999984 68 50.66 68 51 C66.02 51 64.04 51 62 51 C62 51.66 62 52.31999999999999 62 53 C61.34 53 60.68000000000001 53 60 53 C63.178076778622895 56.17807677862288 65.13688377058922 56.926854556829596 69.6875 57.3125 C77.92903652028703 57.05400162205743 84.52765972813688 53.342665079214186 91.421875 49.109375 C94.52221777308264 47.77528810976443 95.83979732471715 47.920780458931176 99 49 C100.78124999999994 50.05078124999997 100.78124999999994 50.05078124999997 102.5 51.3125 C108.9301789789937 55.54611020563516 116.59037977679628 57.20154848951367 124 59 C123.91890256619888 61.75731274923777 123.45210526715795 63.50043616888627 121.5859375 65.5625 C113.83727400295237 72.38951629695828 107.34916053418198 73.53525998255438 97.16943359375 73.5009765625 C95.13624791036477 73.50000537277782 93.10685962154176 73.54165338515159 91.07421875 73.5859375 C83.4269672526315 73.60109558027227 77.81040576584425 73.26409620918491 72 68 C71.4381298828125 67.49146484375001 70.876259765625 66.98292968750002 70.29736328125 66.458984375 C69 65 69 65 69 63 C67.68 63 66.36 63 65 63 C64.01 64.98000000000002 63.019999999999996 66.95999999999998 62 69 C59.91994332808483 66.54175120591844 59.01788722737682 65.0894361368841 58.375 61.875 C57 59 57 59 55.05078125 58.27734375 C53.45209897964628 57.962892195996545 51.847260207337115 57.67849046369014 50.23828125 57.421875 C47.36129452974819 56.879615722884466 45.43174757840373 55.59983393316037 43 54 C42.484375 53.79374999999999 42.484375 53.79374999999999 39.875 52.75 C34.57574974523696 50.55274989436654 29.58008319090044 47.437132955196546 25 44 C25 43.34 25 42.68000000000001 25 42 C24.711250000000007 42.34031249999998 24.711250000000007 42.34031249999998 23.25 44.0625 C21 46 21 46 19.09765625 45.859375 C10.1257093244772 42.18371704168527 4.400675159134451 29.22499887576322 0.60546875 20.96484375 C-2.2508876119002608 13.86694148614751 -2.2508876119002608 13.86694148614751 -1.25390625 10.421875 C0.5225274384064136 6.990756972548354 2.692112268131744 4.0974282717179165 5 1 C3.3500000000000014 1 1.7000000000000028 1 0 1 C0 0.6699999999999875 0 0.3400000000000034 0 0 Z " fill="#0B5D63" transform="translate(44,149)"/>
<path d="M0 0 C8.579999999999984 0 17.159999999999997 0 26 0 C26 0.3299999999999983 26 0.6600000000000001 26 1 C23.03 1 20.060000000000002 1 17 1 C17 4.630000000000003 17 8.260000000000005 17 12 C18.46437499999999 12.123750000000001 19.928750000000008 12.247500000000002 21.4375 12.375 C32.07336935949337 13.50710934358753 43.137954747460526 16.137954747460526 51 24 C50.625 26.62499999999993 50.625 26.62499999999993 50 29 C45.35152398770225 29.262469670828104 42.28552760059847 28.54506248332072 38.0625 26.625 C31.042737043612533 23.560886453068854 24.590206002829063 21.79896905292938 17 21 C17 24.96 17 28.92 17 33 C17.928124999999994 33.0825 18.85624999999999 33.165 19.8125 33.25 C28.756179424085843 34.57163683797219 36.18178981039398 38.139074335582194 43 44 C42.670000000000016 45.650000000000006 42.34 47.3 42 49 C38.78706391761341 50.01615711563598 37.34086973764653 50.13775839052474 34.16796875 48.85546875 C33.1844140625 48.3050390625 32.20085937499999 47.754609375 31.1875 47.1875 C26.45769105312303 44.557051431129196 22.245617469032766 43.16254224989375 17 42 C17.00523681640624 42.32798583984375 17.00523681640624 42.32798583984375 17.03173828125 43.98779296875 C17.07322502565654 46.950156578842325 17.099302619713427 49.91245915838999 17.125 52.875 C17.141757812500003 53.90753906250001 17.158515625000007 54.940078125 17.17578125 56.00390625 C17.17900390624999 56.496972656249994 17.17900390624999 56.496972656249994 17.1953125 58.9921875 C17.20054931640624 59.447790527343756 17.20054931640624 59.447790527343756 17.22705078125 61.75341796875 C17 64 17 64 15 66 C12.5 66.25 12.5 66.25 10 66 C8 64 8 64 7.77294921875 61.75341796875 C7.783422851562506 60.8422119140625 7.793896484375011 59.931005859375006 7.8046875 58.9921875 C7.811132812500006 58.0060546875 7.817578125000011 57.019921874999994 7.82421875 56.00390625 C7.840976562500003 54.97136718749999 7.857734375000007 53.938828125 7.875 52.875 C7.884023437499991 51.83472656250001 7.89304687500001 50.79445312499999 7.90234375 49.72265625 C7.925962531416019 47.14820907565394 7.9588985109155885 44.57421787788624 8 42 C1.0602888665013097 43.42264078236724 -4.4863848008810265 44.98669396303788 -10.30859375 49.05859375 C-12 50 -12 50 -15 49.8125 C-15.659999999999997 49.544375 -16.319999999999993 49.276250000000005 -17 49 C-17.5625 46.375 -17.5625 46.375 -17 43 C-11.248752862970662 37.448448944117516 -2.9438834838420007 33.86082827052621 5.0625 33.8125 C5.547187500000007 33.8434375 5.547187500000007 33.8434375 8 34 C8 29.71 8 25.42 8 21 C-0.8024645234813619 22.35847319496638 -8.71519124193938 23.766062726011732 -16.66796875 28.01171875 C-19.305407120430033 29.129427138138695 -21.1629236913692 29.259697831359986 -24 29 C-25 28 -25 28 -25.29296875 25.62890625 C-25 23 -25 23 -23.48828125 21.33984375 C-13.70259041528594 15.032728831396149 -3.5332626660467383 12.615107342189162 8 12 C8 8.369999999999997 8 4.740000000000002 8 1 C5.360000000000014 1 2.719999999999999 1 0 1 C0 0.6700000000000017 0 0.33999999999999986 0 0 Z " fill="#E28E2B" transform="translate(127,30)"/>
<path d="M0 0 C1.75 0.125 1.75 0.125 4 1 C12.48734343443229 10.813490846062336 13.191774276361883 24.85092480417336 13.25 37.1875 C13.270624999999995 38.260644531249994 13.291249999999991 39.3337890625 13.3125 40.439453125 C13.389251312579148 56.2981930866668 7.8797539258968925 69.48067715681472 -2.94921875 81.0390625 C-5 83 -5 83 -8 85 C-10.187499999999972 84.625 -10.187499999999972 84.625 -12 84 C-12.72265625 81.72265625 -12.72265625 81.72265625 -13 79 C-11.55859375 77.18359375 -11.55859375 77.18359375 -9.4375 75.4375 C-4.360607393886937 70.77104159402964 -1.5769544512822051 65.34477421717207 1 59 C1 58.34 1 57.68000000000001 1 57 C0.7009375000000091 57.34031249999998 0.7009375000000091 57.34031249999998 -0.8125 59.0625 C-6.3023697202372375 64.53668437817942 -13.167321522598144 69.32379754151927 -21 70 C-22 69 -22 69 -22.37890625 66.68359375 C-22 64 -22 64 -19.83984375 61.97265625 C-18.88207031249999 61.34230468749999 -17.92429687500001 60.71195312500001 -16.9375 60.0625 C-15.933320312500001 59.368984375 -14.929140625000002 58.67546874999999 -13.89453125 57.9609375 C-12.939335937500005 57.313828124999986 -11.984140625000009 56.66671875 -11 56 C-3.5669340119320054 50.8614294278421 0.09537144087059346 43.810701004153515 2 35 C2.2402696434077143 31.982431705747814 2.2379416537710597 28.96385079745913 2.25 25.9375 C2.2539477539062602 25.0878466796875 2.257895507812492 24.238193359375003 2.261962890625 23.36279296875 C2.2090410154288236 17.637409893403245 1.5432098542077028 12.642359335482325 -0.44140625 7.2265625 C-1.1204017001890634 4.5200771391065615 -0.7120674793486899 2.6690741278897576 0 0 Z " fill="#E28E2B" transform="translate(213,80)"/>
<path d="M0 0 C-0.43406363158074157 4.051260561420264 -0.9234855445121042 7.723959387509069 -2.015625 11.6640625 C-3.2247010727860683 16.405407391820432 -3.3842757576019693 20.99873422864607 -3.375 25.875 C-3.374194335937503 26.315939941406242 -3.374194335937503 26.315939941406242 -3.3701171875 28.54736328125 C-3.247254178835284 35.06030727978063 -2.360575031936108 40.320979475648045 1 46 C1.5568750000000051 47.051874999999995 2.113749999999996 48.10374999999999 2.6875 49.1875 C6.4511929899966844 53.764964447293266 11.172834953394243 57.17885171267915 16.140625 60.37890625 C18.0625 61.625 18.0625 61.625 21 64 C21.5 66.75 21.5 66.75 21 69 C20 70 20 70 17.8125 70.296875 C14.068105342146623 69.90163334167102 12.072661612458191 68.39772775972841 9 66.25 C8.494687499999998 65.901953125 8.494687499999998 65.901953125 5.9375 64.140625 C3.2262513497552305 62.16487465381098 0.5986226253449729 60.1209346427448 -2 58 C4.400336741317744 72.02626987990911 4.400336741317744 72.02626987990911 10.75390625 77.6015625 C12 79 12 79 11.9375 81.9375 C11 84 11 84 9.23828125 84.671875 C7 85 7 85 5.10546875 83.953125 C-5.470417864808873 74.56191000192126 -13.250403691413922 60.57066522674043 -14.177001953125 46.267822265625 C-14.819725813322663 15.312090210128972 -14.819725813322663 15.312090210128972 -5.5625 1.4765625 C-4 0 -4 0 0 0 Z " fill="#E28E2B" transform="translate(67,80)"/>

<path d="M0 0 C4.692141860333571 -0.8618219743469808 7.57439589402729 0.03727058650942894 11.5 2.5 C15.854196200354835 5.657166317095772 20.277314669514638 9.297179883707102 23 14 C22.963217298294012 17.04683379131206 21.9162263031198 18.0950986596066 19.890625 20.39453125 C19.019218749999993 21.1924609375 18.1478125 21.990390625000003 17.25 22.8125 C16.388906250000005 23.6233203125 15.527812499999996 24.434140624999998 14.640625 25.26953125 C12 27 12 27 9.3671875 26.95703125 C4.2974651689510495 24.907391033651827 1.6943259872438432 20.24978677703892 -0.875 15.625 C-2.2012009606516614 11.351685793455758 -2.662980557471357 7.44283074876909 -2 3 C-1.3400000000000034 2.009999999999998 -0.6799999999999997 1.0200000000000031 0 0 Z " fill="#E28E2B" transform="translate(53,32)"/>
<path d="M0 0 C2.4181644769504373 2.4181644769504373 2.347880633450359 3.1682682553311707 2.4375 6.5 C2.2920049905628446 13.681217965790935 -0.8202949297503324 19.809553220855932 -5.5 25.1875 C-8 27 -8 27 -10.32421875 26.8984375 C-13.776134411664657 25.739400124550556 -15.677097215809368 23.9323479690338 -18.3125 21.4375 C-19.19550781250001 20.611210937500005 -20.078515624999994 19.784921874999995 -20.98828125 18.93359375 C-21.65214843749999 18.2955078125 -22.316015625000006 17.657421874999997 -23 17 C-21.894510356835127 10.636348079730425 -16.420365317654785 5.919794773555921 -11.5625 2 C-7.665588229911151 -0.6185131124805103 -4.598618672432622 -0.5455988255428537 0 0 Z " fill="#E28E2B" transform="translate(226,32)"/>
<path d="M0 0 C3.4691125465482457 3.601154892610637 3.3510004329967984 6.515963628268494 3.29296875 11.390625 C3.288723907470697 12.095238647460945 3.284479064941408 12.799852294921862 3.2801055908203125 13.52581787109375 C3.2633653807504146 15.767607117111993 3.22572404495277 18.00848430729772 3.1875 20.25 C3.1724470381854246 21.77342447955678 3.1587596977841343 23.29686310700305 3.146484375 24.8203125 C3.113477911175565 28.547169408252245 3.061728538267616 32.27349562827524 3 36 C3.6187500000000057 35.814374999999984 4.237499999999997 35.62875 4.875 35.4375 C7 35 7 35 9 36 C9 37.31999999999999 9 38.639999999999986 9 40 C24.180000000000007 40 39.360000000000014 40 55 40 C55 40.329999999999984 55 40.66 55 41 C48.46736699261308 41.16783251974559 41.93457594566297 41.32779476430355 35.401611328125 41.482177734375 C33.17728264155235 41.5356839227118 30.95299720398785 41.591019625148306 28.728759765625 41.648193359375 C25.539320179919315 41.72986460238462 22.349785008279838 41.80504388230443 19.16015625 41.87890625 C18.15912368774414 41.90594131469726 17.158091125488284 41.93297637939452 16.126724243164063 41.96083068847656 C15.205845184326165 41.98092697143554 14.284966125488282 42.00102325439454 13.336181640625 42.021728515625 C12.521217193603519 42.041714019775384 11.706252746582038 42.06169952392577 10.866592407226563 42.08229064941406 C9 42 9 42 8 41 C7.670000000000002 42.97999999999999 7.340000000000003 44.96000000000001 7 47 C4.624999999999986 46.6875 4.624999999999986 46.6875 2 46 C-0.07538624284794082 42.886920635728075 -0.2477215135142501 42.236518054179754 -0.22705078125 38.712158203125 C-0.22689971923827557 37.851492462158205 -0.22674865722656534 36.99082672119141 -0.226593017578125 36.10408020019531 C-0.22143173217773438 35.64153587341309 -0.22143173217773438 35.64153587341309 -0.1953125 33.30078125 C-0.19248260498046932 32.35059616088867 -0.18965270996093864 31.40041107177734 -0.186737060546875 30.421432495117188 C-0.17553715226428324 27.384993851133743 -0.15043287674332362 24.34884957723409 -0.125 21.3125 C-0.11496995645705965 19.254561549842123 -0.10584414927569696 17.196618478951905 -0.09765625 15.138671875 C-0.0755984242458112 10.092334399722873 -0.041069819414460085 5.0462171192856005 0 0 Z " fill="#0B5D63" transform="translate(107,116)"/>
<path d="M0 0 C3.297147925571352 0.32971479255712666 4.622683899836687 0.6226838998366873 7 3 C7.1953125 6.0390625 7.1953125 6.0390625 7.125 9.625 C7.10695312499999 10.813515625000008 7.088906250000008 12.002031249999987 7.0703125 13.2265625 C7.047109374999991 14.141796875000011 7.02390625000001 15.057031249999994 7 16 C6.253632812500001 16.112148437499997 5.507265625000002 16.224296874999993 4.73828125 16.33984375 C1.9416498924412622 17.014067286986347 0.4477030727210263 17.83410941497806 -1.8125 19.5625 C-2.114785156250008 19.79001953125001 -2.114785156250008 19.79001953125001 -3.64453125 20.94140625 C-4.091835937500008 21.2907421875 -4.5391406249999875 21.640078125000002 -5 22 C-4.690625000000011 21.113124999999997 -4.381249999999994 20.226249999999993 -4.0625 19.3125 C-2.6631868265037326 14.556792291474238 -2.5705530758048383 9.72026557186021 -2.34375 4.79296875 C-2 2 -2 2 0 0 Z " fill="#0B5D63" transform="translate(192,168)"/>
<path d="M0 0 C0 0.33000000000000007 0 0.6600000000000001 0 1 C-1.9799999999999898 1.33 -3.960000000000008 1.6600000000000001 -6 2 C-5.340000000000003 2.66 -4.680000000000007 3.3200000000000003 -4 4 C-5.875 5.0624999999999964 -5.875 5.0624999999999964 -8 6 C-8.659999999999997 5.67 -9.319999999999993 5.34 -10 5 C-10 4.34 -10 3.6799999999999997 -10 3 C-10.990000000000009 3.33 -11.97999999999999 3.66 -13 4 C-12.669999999999987 4.99 -12.340000000000003 5.98 -12 7 C-12.659999999999997 7.66 -13.319999999999993 8.32 -14 9 C-13.340000000000003 8.814374999999998 -12.680000000000007 8.62875 -12 8.4375 C-8.106698860860803 7.869726917208865 -4.886245212176249 8.407182933735825 -1 9 C-1 9.329999999999998 -1 9.66 -1 10 C-1.7360546875000011 10.048984375 -2.4721093750000023 10.09796875 -3.23046875 10.1484375 C-4.206289062499991 10.223203124999998 -5.18210937500001 10.297968750000003 -6.1875 10.375 C-7.150429687500008 10.444609374999999 -8.113359375000016 10.514218749999998 -9.10546875 10.5859375 C-12.015089376742822 11.002158534324884 -14.328907737926215 11.798740957092953 -17 13 C-18.5 11.624999999999993 -18.5 11.624999999999993 -20 10 C-20 9.34 -20 8.68 -20 8 C-20.659999999999997 8 -21.319999999999993 8 -22 8 C-22 8.66 -22 9.32 -22 10 C-23.650000000000006 9.670000000000002 -25.30000000000001 9.34 -27 9 C-19.898155006494648 1.1426395816536594 -10.219595820644571 -0.9052791573405621 0 0 Z " fill="#0B5D63" transform="translate(229,10)"/>
<path d="M0 0 C2.458406054800001 -0.026916854614597696 4.916518815900133 -0.04679802163439817 7.375 -0.0625 C8.073671875000002 -0.07087890624999993 8.772343750000005 -0.07925781249999986 9.4921875 -0.087890625 C14.7734375 -0.11328125 14.7734375 -0.11328125 17 1 C16 4 16 4 13 6 C13.659999999999997 6.66 14.32 7.32 15 8 C12.687562079939013 8.026854117781355 10.375037298611808 8.046328410499218 8.0625 8.0625 C6.7747265625 8.074101562499997 5.486953124999999 8.085703125000002 4.16015625 8.09765625 C1 8 1 8 0 7 C-0.04092937423433085 4.667025668643301 -0.04241723189086599 2.332947753997754 0 0 Z " fill="#0B5D63" transform="translate(47,11)"/>
<path d="M0 0 C0.9074999999999989 0.35062500000000085 1.8149999999999977 0.7012500000000017 2.75 1.0625 C3.1212500000000034 1.2171875000000014 3.1212500000000034 1.2171875000000014 5 2 C4.597812500000003 2.3196875000000006 4.597812500000003 2.3196875000000006 2.5625 3.9375 C0 6 0 6 -1 7 C-0.009999999999990905 7.990000000000002 0.9799999999999898 8.980000000000004 2 10 C0 11 0 11 -1.87939453125 10.562744140625 C-2.6230224609375057 10.306140136718753 -3.3666503906250114 10.049536132812499 -4.1328125 9.78515625 C-4.9384765625 9.51123046875 -5.744140625 9.2373046875 -6.57421875 8.955078125 C-7.415976562499992 8.660527343749997 -8.257734375000013 8.365976562500002 -9.125 8.0625 C-9.549746093750002 7.917158203124998 -9.549746093750002 7.917158203124998 -11.69921875 7.181640625 C-13.801867486127094 6.461069990709255 -15.90187476798721 5.733616851988806 -18 5 C-17.381249999999994 4.855625000000003 -16.76249999999999 4.71125 -16.125 4.5625 C-14 4 -14 4 -12 3 C-11.669999999999987 2.34 -11.340000000000003 1.6799999999999997 -11 1 C-3.880597014925371 -1.5522388059701484 -3.880597014925371 -1.5522388059701484 0 0 Z " fill="#0B5D63" transform="translate(181,28)"/>
<path d="M0 0 C-0.3299999999999983 0.6599999999999966 -0.6599999999999966 1.3199999999999932 -1 2 C0 5 0 5 2 7 C-1.177464913292411 8.588732456646198 -4.540122018653776 8.410262211226836 -8 8 C-10.5 6.5 -10.5 6.5 -12 5 C-12.329999999999998 5.659999999999997 -12.659999999999997 6.319999999999993 -13 7 C-13.329999999999998 5.680000000000007 -13.659999999999997 4.360000000000014 -14 3 C-13.340000000000003 3 -12.680000000000007 3 -12 3 C-12 2.3400000000000034 -12 1.6800000000000068 -12 1 C-7.93631320862616 0.22596442069070122 -4.135748272751442 -0.09847019697028259 0 0 Z " fill="#0B5D63" transform="translate(118,199)"/>
<path d="M0 0 C2.6875 0.875 2.6875 0.875 5 2 C4.340000000000003 4.969999999999999 3.6799999999999997 7.939999999999998 3 11 C1.3500000000000014 11.329999999999998 -0.29999999999999716 11.659999999999997 -2 12 C-2.3299999999999983 11.010000000000005 -2.6599999999999966 10.019999999999996 -3 9 C-3.6599999999999966 8.670000000000002 -4.32 8.340000000000003 -5 8 C-3.375 2.25 -3.375 2.25 0 0 Z " fill="#0B5D63" transform="translate(36,96)"/>
<path d="M0 0 C8.580000000000013 0 17.159999999999997 0 26 0 C26 0.3299999999999983 26 0.6600000000000001 26 1 C23.03 1 20.060000000000002 1 17 1 C17 4.630000000000003 17 8.260000000000005 17 12 C16.670000000000016 12 16.340000000000003 12 16 12 C15.669999999999987 9.36 15.340000000000003 6.719999999999999 15 4 C14.009999999999991 4.329999999999998 13.02000000000001 4.659999999999997 12 5 C11.669999999999987 5.990000000000002 11.340000000000003 6.980000000000004 11 8 C10.009999999999991 9.32 9.02000000000001 10.64 8 12 C8 8.369999999999997 8 4.740000000000002 8 1 C5.360000000000014 1 2.719999999999999 1 0 1 C0 0.6700000000000017 0 0.33999999999999986 0 0 Z " fill="#E28E2B" transform="translate(127,30)"/>
</svg>
