<?xml version="1.0" encoding="UTF-8"?>
<!-- Generator: visioncortex VTracer 0.6.12 -->
<svg version="1.1" xmlns="http://www.w3.org/2000/svg" width="1155" height="118">

<path d="M0 0 C4.070297536180078 1.5874160391102343 6.599306902844205 4.338452343081535 9.609375 7.44140625 C10.228527832031261 8.071918945312504 10.847680664062494 8.702431640625 11.485595703125 9.35205078125 C16.39771548670194 14.473073091501789 20.44137032820919 19.754813962400952 23.734375 26.06640625 C23.912265625000032 26.37900390625 23.912265625000032 26.37900390625 24.8125 27.9609375 C26.981610633990954 32.486491050008375 27.03332297361544 37.183271141627536 27.109375 42.12890625 C27.12347412109375 42.802038574218756 27.1375732421875 43.4751708984375 27.152099609375 44.168701171875 C27.087297159642162 50.872883724618575 24.934006158839225 56.643123235122275 20.3359375 61.64453125 C12.833647957167358 68.30510050266118 4.6744300098674785 69.00429885600931 -4.96484375 68.55078125 C-11.93864377831079 67.94977476225004 -17.45392264887232 65.35720529859502 -22.203125 60.19140625 C-27.830688419322797 51.66479500860184 -28.79257209108934 43.042160736115335 -27.265625 33.06640625 C-23.923149529050704 22.344009689726995 -17.007151194149344 14.807932444149358 -9.265625 7.06640625 C-8.577265624999995 6.295546874999999 -7.888906249999991 5.524687499999999 -7.1796875 4.73046875 C-6.589296875000002 4.078203125000002 -5.9989062500000045 3.4259375 -5.390625 2.75390625 C-4.898203125000009 2.200898437500001 -4.40578124999999 1.6478906249999987 -3.8984375 1.078125 C-2.265625 0.06640625 -2.265625 0.06640625 0 0 Z " fill="#EFB8C3" transform="translate(233.265625,24.93359375)"/>
<path d="M0 0 C3.1566064938532463 1.6193743351366052 5.46595675802314 4.001145647111986 7.9140625 6.515625 C8.44451171875005 7.054775390625 8.974960937499986 7.59392578125 9.521484375 8.1494140625 C19.839817326469984 18.852007276509447 26.468364792246348 29.68922003514504 26.31640625 44.75 C25.906087020242808 51.10621788642092 24.206214080216114 56.99330068906659 19.7109375 61.7265625 C12.451486104395713 67.82309207009486 5.030532968773173 68.88622355467004 -4.18359375 68.4296875 C-11.16828155326516 67.7686760359686 -15.859210846581846 65.50845955220574 -21.2578125 61.06640625 C-25.917080385861368 55.41981731213464 -27.65644125233689 49.696791419867964 -27.5859375 42.453125 C-27.579411621093755 41.67259765624999 -27.57288574218751 40.89207031250001 -27.566162109375 40.087890625 C-27.04291512530915 27.236210314610027 -19.73282430798122 17.897763249036387 -10.8984375 9.078125 C-10.095351562500014 8.204140625 -9.292265625000027 7.330156250000002 -8.46484375 6.4296875 C-7.6798046874999955 5.591796875 -6.894765624999991 4.75390625 -6.0859375 3.890625 C-5.732089843750032 3.5122851562500017 -5.732089843750032 3.5122851562500017 -3.94140625 1.59765625 C-1.8984375 0.078125 -1.8984375 0.078125 0 0 Z " fill="#EFB8C3" transform="translate(785.8984375,24.921875)"/>
<path d="M0 0 C4.108994205397039 1.4369937600334879 6.578806375474869 4.090811933294443 9.59375 7.16015625 C10.208874511718705 7.781484374999998 10.823999023437409 8.402812499999996 11.457763671875 9.04296875 C21.74448096429228 19.810373766362027 26.25157610947963 30.43842804033919 26.125 45.421875 C25.491601670570162 51.96459183467789 22.807177958590728 57.429639400674915 17.96875 61.91015625 C9.241144653451101 67.557430297767 0.8892067941005735 67.88018178259726 -9.21875 66.97265625 C-15.911052997412298 65.35305780770388 -20.45881215362101 60.56282839197078 -24.21875 54.97265625 C-27.904630601203053 47.83616402213863 -28.34714318978604 39.9830058851509 -26.59765625 32.21484375 C-23.776795703738344 23.413758845663914 -10.707365663178507 -0.13195697120114502 0 0 Z " fill="#EFB8C3" transform="translate(1064.21875,26.02734375)"/>
<path d="M0 0 C4.326488067112791 0.918300173788893 6.625299493260968 3.767582943805646 9.6171875 6.89453125 C10.236340332031205 7.531005859375 10.855493164062523 8.16748046875 11.493408203125 8.8232421875 C20.592889213397143 18.393571918909345 26.691929675088318 28.206383982791834 27.1171875 41.64453125 C26.869630746148232 50.02917086958952 24.941032871071457 56.65869011764282 18.7421875 62.58203125 C10.033147244462839 67.89948831404615 1.6953101277252927 68.26845350018795 -8.2578125 67.58203125 C-14.552747867614414 66.0247148997407 -18.738231920325404 61.88881318321654 -22.2578125 56.58203125 C-26.46469813184791 48.72917807055059 -26.591562542142697 39.353675777605616 -24.6015625 30.7421875 C-20.715869339493224 20.1402746956863 -12.901150698585639 11.654936905482913 -5.2578125 3.58203125 C-5.018046874999982 3.287480468750001 -5.018046874999982 3.287480468750001 -3.8046875 1.796875 C-2.2578125 0.58203125 -2.2578125 0.58203125 0 0 Z " fill="#EFB8C3" transform="translate(508.2578125,25.41796875)"/>
<path d="M0 0 C-0.37171440918049825 2.4367944601833074 -0.6060926929675219 3.6704040900340473 -2.53125 5.28125 C-3.180937499999999 5.683437499999997 -3.8306249999999977 6.085625 -4.5 6.5 C-9.387980527053472 9.933850119363726 -12.424252267685034 14.326861045439806 -15.87890625 19.140625 C-18.341899013755935 22.460902537880926 -20.96939117716869 25.202514932771095 -24 28 C-14.084006434105419 25.413219069766626 -8.193735726980194 21.512842371222625 -1.15625 14.04296875 C8.222546553132943 4.321485399733369 8.222546553132943 4.321485399733369 14.9375 3.75 C15.618125000000006 3.832499999999996 16.29875 3.914999999999999 17 4 C17 5.32 17 6.640000000000001 17 8 C15.128906250000028 9.570312499999986 15.128906250000028 9.570312499999986 12.5625 11.125 C7.535809652261477 14.414420595828886 3.9223837521883524 18.153817755329655 0.10546875 22.765625 C-2.081677308756312 25.086677960312826 -4.202954986684304 26.496527287781447 -7 28 C3.948381443818022 26.79276402330524 11.297208901843504 22.568510838731143 19.4140625 15.328125 C21.788871508552077 13.339368687419451 24.100857425621257 12.071422255748665 27 11 C29.874999999999986 11.3125 29.874999999999986 11.3125 32 12 C32 13.32 32 14.64 32 16 C31.685468749999984 16.145664062500003 31.685468749999984 16.145664062500003 30.09375 16.8828125 C24.200302728526296 19.70527670531422 19.069497315828272 22.879263355011105 14 27 C22.456418455671923 26.036450071017896 30.10297064790973 24.588633092651627 38.16015625 21.8046875 C40.93223397402605 21.019201927579964 43.13834053497334 20.842477460640737 46 21 C46.329999999999984 21.659999999999997 46.329999999999984 21.659999999999997 48 25 C43.077868695633924 27.633659866751714 38.42096702137519 29.644758244656202 33 31 C36.30000000000001 31.33 39.599999999999994 31.659999999999997 43 32 C43.16499999999999 32.66 43.16499999999999 32.66 44 36 C37.625825061259945 39.28989674257551 31.394537659858372 38.543728055729034 24.75 36.5 C18.485100810435625 34.60720067038693 12.49173855853816 34.721340316247165 6 35 C13.953340332169859 38.74746727466794 21.028480571738527 41.95865659249648 30 42 C30.5625 43.93749999999996 30.5625 43.93749999999996 31 46 C29.337015098461904 47.662984901538096 27.41186385143483 47.25095550541465 25.125 47.3125 C15.273122264027549 47.19809109725968 7.115016824167682 42.730831112560836 -1.46875 38.26953125 C-4.863093799417754 36.56712116541547 -7.434015598275366 35.875967468824186 -11.1875 35.9375 C-12.445625000000007 35.958124999999995 -13.70375 35.97874999999999 -15 36 C-14.310351562500003 36.435703125 -13.620703125000006 36.87140625000001 -12.91015625 37.3203125 C-11.970429687500001 37.915859375 -11.030703125000002 38.51140624999999 -10.0625 39.125 C-9.054453124999995 39.761796875 -8.046406250000004 40.39859375 -7.0078125 41.0546875 C-4.4285643750183254 42.72282459901413 -1.937192558094921 44.467065164656304 0.5625 46.25 C5.069479508671108 49.30364191348369 9.737356646739485 50.747512855382666 15 52 C15 53.31999999999999 15 54.64 15 56 C13.667802039822305 56.083262372511115 12.333958356043652 56.14018053128899 11 56.1875 C10.628749999999997 56.20490234375001 10.628749999999997 56.20490234375001 8.75 56.29296875 C1.5214510368106176 55.52288185761478 -3.786766399795809 52.02489280418354 -9.375 47.625 C-18.461734581505667 40.71440964187002 -26.333455322881562 35.77564337159387 -38 36 C-36.88625 36.66 -35.7725 37.31999999999999 -34.625 38 C-31.19341483868638 40.128067829719214 -28.108855661728953 42.487828515441194 -25 45.0625 C-19.09618189407111 49.87067088074883 -13.291526585578097 52.812542024326575 -6 55 C-6 55.99000000000001 -6 56.97999999999999 -6 58 C-9.505168193446593 59.7525840967233 -13.130310611614732 59.58378487232282 -16.8515625 58.421875 C-22.344310491830086 55.93544586789585 -26.689271517932482 52.08545424633624 -31.28515625 48.24609375 C-42.16294434620428 39.24648489342812 -52.80108024125415 35.59772004321222 -67.00390625 35.46875 C-70.63369759044629 34.900855657296546 -71.82743384585774 33.91454820678544 -74 31 C-73.83849795457283 27.608457046029265 -73.41703242718835 26.417032427188346 -71 24 C-68.625 23.625 -68.625 23.625 -66 24 C-65.70093750000001 24.33 -65.70093750000001 24.33 -64.1875 26 C-62 28 -62 28 -58.375 28.625 C-52.629746973091585 28.241983131539442 -48.29025948779558 25.72728426089028 -44 22 C-41.61201957137127 19.158451287260604 -39.507784090713145 16.13761703267558 -37.48681640625 13.02685546875 C-35.04952767917518 9.285448371959376 -32.76566831007827 6.4422705014245665 -29 4 C-25.1875 3.75 -25.1875 3.75 -22 4 C-22.125 5.75 -22.125 5.75 -23 8 C-23.901054687499993 8.559453124999997 -24.802109375 9.118906250000002 -25.73046875 9.6953125 C-29.563515768890696 12.144076745679868 -31.71090169914808 15.377261541612526 -34.1875 19.125 C-38.640202702702695 25.76013513513513 -38.640202702702695 25.76013513513513 -42 28 C-35.37627490733901 27.718139357759107 -31.00574407185681 25.30023651810518 -26 21 C-22.802735291773786 17.480863005710745 -19.90743438989081 13.759429815499836 -17 10 C-7.031832413895927 -2.2100044729387207 -7.031832413895927 -2.2100044729387207 0 0 Z " fill="#0B5D63" transform="translate(98,33)"/>
<path d="M0 0 C0.6599999999999682 0.2887500000000003 1.32000000000005 0.5775000000000006 2 0.875 C1.6875 2.7578125 1.6875 2.7578125 1 4.875 C0.009999999999990905 5.493749999999999 -0.9800000000000182 6.112499999999997 -2 6.75 C-7.189752858699421 10.138351039977351 -9.848963349181304 15.509285640052028 -12.984375 20.6953125 C-14.543217542750426 23.15441682131562 -15.827495954042206 24.991246491796133 -18 26.875 C-8.282194661326457 25.23377065391292 -3.1135373273258438 21.40286312693106 3 13.875 C11.709677419354875 3.5201612903225836 11.709677419354875 3.5201612903225836 17 0.875 C18.999600119960064 0.8350079976007976 21.000472422352118 0.8315320091815721 23 0.875 C23 2.1950000000000003 23 3.5150000000000006 23 4.875 C21.53125 6.04296875 21.53125 6.04296875 19.5 7.0625 C14.24571108053783 10.07557895558542 10.812136476122078 14.241913024755718 7 18.875 C6.467617187499968 19.506640625000003 5.93523437500005 20.13828125 5.38671875 20.7890625 C4.247924133254742 22.14278455145488 3.122116049289275 23.50742106492875 2 24.875 C8.455588366230813 25.54745712148238 11.924936628712203 23.796213473564308 17 19.875 C19.321880761278862 17.875926781746557 21.591434962388007 15.84026952345991 23.82421875 13.7421875 C29.07843922576933 9.233179623127967 32.276885009542184 8.533146695400447 39 8.875 C39 10.195 39 11.515 39 12.875 C38.2265625 13.2269140625 37.453125 13.578828125000001 36.65625 13.94140625 C29.863314931263176 17.16132472936411 24.337876248766975 20.568523023284556 19 25.875 C27.87033239712082 26.865835001806055 32.74629766863916 25.283139076003067 40.15234375 20.43359375 C44.36502888133873 18.127885427086234 47.30254364888094 18.326963425702772 52 18.875 C51.835000000000036 19.700000000000003 51.835000000000036 19.700000000000003 51 23.875 C49.741874999999936 24.16375 48.483749999999986 24.4525 47.1875 24.75 C44.146060101804665 25.448035386471062 42.69330122150245 26.079465852331708 40 27.875 C44.45500000000004 28.04 44.45500000000004 28.04 67 28.875 C67.16499999999996 29.700000000000003 67.16499999999996 29.700000000000003 68 33.875 C64.80542649121526 35.7591464164057 62.484973705069024 36.11319736866359 58.796875 36.0703125 C58.30703125000002 36.06708984375 58.30703125000002 36.06708984375 55.828125 36.05078125 C54.81234374999997 36.0340234375 53.796562499999936 36.01726562499999 52.75 36 C51.71875 35.99097656250001 50.6875 35.98195312499999 49.625 35.97265625 C47.08323384388291 35.9491213781841 44.54158728348625 35.913251313631065 42 35.875 C43.815000000000055 36.7 43.815000000000055 36.7 53 40.875 C53 41.86500000000001 53 42.85499999999999 53 43.875 C44.8786460281749 44.97620053855255 40.86678634779878 42.2392492042939 34.17578125 37.7890625 C30.07410381837201 35.31695679090069 26.707376915355553 34.51328839530245 22 33.875 C28.469273539948063 40.18990909539397 34.8576703104618 44.927672869140224 43 48.875 C43 49.86500000000001 43 50.85499999999999 43 51.875 C35.998835626739265 52.78819535303401 31.550755922611756 49.98834518695173 26 45.875 C24.845108525185083 44.73791522193332 23.717865626251523 43.571821137041326 22.625 42.375 C18.00230860938791 37.43312277527427 10.98400326117087 33.09753969170029 4.1328125 32.71484375 C3.4289843750000273 32.767695312499995 2.7251562500000546 32.82054687499999 2 32.875 C2.4730859374999454 33.203710937500006 2.9461718750000045 33.532421875 3.43359375 33.87109375 C7.454679442565634 36.76345363412612 10.961897788063311 39.77937895320042 14.375 43.375 C18.74512828478555 47.882409801585055 23.480673985305202 50.936736672761626 29 53.875 C28.66999999999996 55.19499999999999 28.340000000000032 56.515 28 57.875 C18.638461770722188 57.67581833554729 13.11145623081893 51.088718423364384 6.9375 44.6875 C0.19065795506355698 37.83654002227129 -5.427209888329116 35.31818472739218 -15 34.875 C-14.757656249999968 35.05095703124999 -14.757656249999968 35.05095703124999 -13.53125 35.94140625 C-9.824641331234602 38.67146609641756 -6.285527584723013 41.468005859421254 -2.875 44.5625 C0.25877818265917085 47.36184335684182 3.140997523996589 49.23492394769852 7 50.875 C7 52.19499999999999 7 53.515 7 54.875 C1.6326246327624858 55.386178606403575 -0.8152212186671477 54.20574229534657 -5 50.875 C-6.048346442053571 49.75622201403584 -7.089548503902165 48.63072306232479 -8.125 47.5 C-13.804252766047398 41.591539723215206 -22.764711104948105 36.99264678395011 -31.01171875 36.55859375 C-31.390380859375 36.537646484375 -31.390380859375 36.537646484375 -33.306640625 36.431640625 C-34.092324218750036 36.39232421874999 -34.87800781249996 36.35300781250001 -35.6875 36.3125 C-36.086142578124964 36.290908203125 -36.086142578124964 36.290908203125 -38.103515625 36.181640625 C-40.06881446826412 36.075726316081585 -42.03438496401941 35.974874493720094 -44 35.875 C-44 34.224999999999994 -44 32.575 -44 30.875 C-41.63516699938748 29.692583499693733 -40.00962161701568 29.73919412581492 -37.375 29.625 C-32.514784708196544 29.209416373599417 -29.510883766673942 27.767094200073586 -25.59375 24.93359375 C-24 23.875 -24 23.875 -22 23.875 C-21.755078124999955 23.356796875 -21.510156250000023 22.83859375 -21.2578125 22.3046875 C-9.505967213114786 -0.3960819672131066 -9.505967213114786 -0.3960819672131066 0 0 Z " fill="#0B5D63" transform="translate(910,33.125)"/>
<path d="M0 0 C-1.0535677576483522 2.6818088376503226 -1.8684125656490096 3.906563783594528 -4.25 5.59765625 C-7.920792498120363 8.804385491965903 -9.939892664190324 12.473046376835761 -12.3125 16.6875 C-12.766894531250045 17.47189453125 -13.221289062499977 18.256289062500002 -13.689453125 19.064453125 C-17 24.824306860902247 -17 24.824306860902247 -17 26 C-8.512812811936442 23.46873364566526 -4.122168956802966 19.010971416537473 1 11.9375 C4.655846606037244 6.939879905576731 8.298409546544917 2.687677569970397 14.4375 1.125 C14.860312499999964 1.1043749999999974 14.860312499999964 1.1043749999999974 17 1 C17.164999999999964 1.6599999999999966 17.164999999999964 1.6599999999999966 18 5 C17.49210937500004 5.351914062500001 16.984218749999968 5.703828125000001 16.4609375 6.06640625 C11.553355404122954 9.586263820638393 7.744950939468254 13.284526563542741 4 18 C3.0439624620200902 19.147749550872916 2.0857784578533938 20.29371612160317 1.125 21.4375 C0.4237500000000409 22.283125 -0.27750000000003183 23.128749999999997 -1 24 C3.624188067044315 24.578023508380547 6.093471078376865 24.309569680723982 9.875 21.5 C13.681331051079269 18.389768401841877 17.31950534917644 15.077581366591673 20.921875 11.734375 C24.97085438535362 8.35515160320115 27.735560724950574 7.760707305679574 33 8 C33.164999999999964 8.659999999999997 33.164999999999964 8.659999999999997 34 12 C33.34773437499996 12.291328125 32.69546875000003 12.58265625 32.0234375 12.8828125 C26.225551707330283 15.602174862933609 22.34493630179918 18.32919347556586 18 23 C17.340000000000032 23 16.680000000000064 23 16 23 C16 23.659999999999997 16 24.32 16 25 C23.267813147570337 24.969073135542253 27.696109100537 23.286207077089927 33.7265625 19.30078125 C36.59070345279201 17.662020189381906 38.75780733636748 17.48807484258434 42 18 C42.164999999999964 18.659999999999997 42.164999999999964 18.659999999999997 43 22 C40.690000000000055 22.989999999999995 38.379999999999995 23.980000000000004 36 25 C39.49799176240185 26.74899588120092 43.71647497521826 26.369159321480325 47.58984375 26.517578125 C52.78599531089412 26.785995310894137 52.78599531089412 26.785995310894137 55 29 C54.66999999999996 30.319999999999993 54.34000000000003 31.64 54 33 C48.389999999999986 33 42.77999999999997 33 37 33 C38.98000000000002 33.66 40.960000000000036 34.31999999999999 43 35 C42.66999999999996 36.31999999999999 42.34000000000003 37.64 42 39 C36.010572505669074 38.73959010894214 32.436851075064965 36.65909514895077 27.52734375 33.27734375 C24.499029453945127 31.74680468537875 22.348850926093064 31.771558790237492 19 32 C20.870712998676936 33.13211433900514 22.746781914782105 34.2553809467679 24.625 35.375 C25.669140624999955 36.00148437499999 26.713281250000023 36.62796875000001 27.7890625 37.2734375 C30.82241736434287 38.90451152681209 33.706220757189044 40.02076833321834 37 41 C37 41.99000000000001 37 42.97999999999999 37 44 C26.98737899729963 44.83438508355836 21.15686053511854 40.999173979078165 13.17578125 35.3671875 C9.40656987890145 32.998742293744186 6.157485390748548 31.723475071500047 1.6875 31.875 C1.0790624999999636 31.895624999999995 1.0790624999999636 31.895624999999995 -2 32 C-1.4663281250000182 32.3519140625 -0.9326562500000364 32.703828125 -0.3828125 33.06640625 C0.3622656249999636 33.5601171875 1.107343750000041 34.053828124999995 1.875 34.5625 C2.698710937499982 35.1077734375 3.5224218749999636 35.653046875 4.37109375 36.21484375 C6.093177692701374 37.38422318806023 7.795062448687872 38.58405061396502 9.47265625 39.81640625 C15.053306208125832 43.91124132228566 20.448780339803534 46.75585879725183 27 49 C26.66999999999996 50.31999999999999 26.340000000000032 51.64 26 53 C15.001930193774797 52.47628239017976 8.618446048478404 47.65477883991008 0.29296875 40.80078125 C-5.023517812503087 36.62548260380933 -10.078042579644261 34.839382979112415 -16.75 34.9375 C-17.549218750000023 34.94652343749999 -18.348437500000045 34.95554687500001 -19.171875 34.96484375 C-19.77515625000001 34.976445312500005 -20.378437500000018 34.98804687500001 -21 35 C-20.287148437500036 35.435703125 -19.57429687499996 35.87140625000001 -18.83984375 36.3203125 C-10.069582667995633 41.773691530802154 -10.069582667995633 41.773691530802154 -6.4375 45.1875 C-2.537862455319555 48.735219034550695 2.070718339701216 50.31392780231229 7 52 C6.669999999999959 53.31999999999999 6.340000000000032 54.64 6 56 C-0.5914147426390173 56.70121433432331 -4.614005579690684 54.73406002941567 -10 51 C-11.804963207268202 49.49497133162507 -13.596043023250559 47.97318080898884 -15.375 46.4375 C-25.47503781024352 38.09036131384835 -34.39880661516338 37.56630876027725 -47.03515625 37.95703125 C-51 38 -51 38 -53 37 C-52.765625 35.1171875 -52.765625 35.1171875 -52 33 C-50.109375 31.9453125 -50.109375 31.9453125 -47.75 31.125 C-40.80941192144087 28.26324093443298 -38.370290501033196 23.78281814247066 -35 17.375 C-32.86038664870523 13.348137949101584 -31.168628338691406 10.194014915100752 -27 8 C-24.6875 8.25 -24.6875 8.25 -23 9 C-23.42358216955472 12.671045469473825 -25.280943217819186 14.577912293869922 -27.66015625 17.28125 C-29.9672564183943 20.24079540552038 -31.44028452592636 23.605325144663198 -33 27 C-33.33000000000004 27.659999999999997 -33.65999999999997 28.32 -34 29 C-24.184444958543395 24.938391017328314 -20.615839405214956 18.147635823896472 -15.37109375 9.265625 C-11.65978094702632 3.1329713654565197 -7.73257356569809 -2.4302374063622487 0 0 Z " fill="#0B5D63" transform="translate(646,34)"/>
<path d="M0 0 C0.16499999999996362 0.6599999999999966 0.16499999999996362 0.6599999999999966 1 4 C0.35933593750002046 4.412500000000001 -0.2813281250000159 4.825000000000003 -0.94140625 5.25 C-6.9285356097148 9.247368037484684 -11.528547107460668 13.382311721302102 -16 19 C-16.97726831347029 20.168257298590134 -17.956238558813823 21.33509465780972 -18.9375 22.5 C-19.61812500000002 23.325000000000003 -20.298749999999984 24.15 -21 25 C-14.978906083896106 25.752636739512987 -11.604589423516245 23.534508782839936 -7 20 C-4.380870126453374 17.71220583334781 -1.8213332094510406 15.380084808317434 0.703125 12.98828125 C4.3908431060270345 9.796021869102447 6.8715794970726165 8.731517044031548 11.75 8.875 C12.549218750000023 8.893046874999996 13.348437499999989 8.91109375 14.171875 8.9296875 C14.775156250000009 8.952890625000002 15.378437500000018 8.976093750000004 16 9 C16 10.32 16 11.64 16 13 C14.80374999999998 13.412500000000001 13.607500000000016 13.825000000000003 12.375 14.25 C6.100709431449104 16.618074394479528 1.594367105300762 20.13537600615215 -3 25 C3.1248536403078333 25.71744489496014 7.17589280925182 25.235477408357653 12.5 22 C17.82410719074818 18.764522591642333 21.875146359692167 18.28255510503986 28 19 C27.835000000000036 19.825000000000003 27.835000000000036 19.825000000000003 27 24 C26.373515624999982 24.1327734375 25.74703125000002 24.265546875 25.1015625 24.40234375 C24.284296874999995 24.578945312499997 23.46703124999999 24.755546875 22.625 24.9375 C21.812890625000023 25.111523437499997 21.00078124999999 25.285546875 20.1640625 25.46484375 C18 26 18 26 16 27 C19.68084337521509 28.226947791738368 23.35391346748935 28.6105050813197 27.1875 29.0625 C27.937089843750016 29.153378906249998 28.686679687500032 29.244257812499995 29.458984375 29.337890625 C31.305655350693257 29.561373099765433 33.15278554186898 29.78105513327101 35 30 C35.38218767082458 31.656146573573295 35.71395101721498 33.324570243687745 36 35 C35 36 35 36 33.03125 36.1328125 C27.27504564160796 36.11504643716546 21.70965615729051 35.736729826747165 16 35 C18.970000000000027 36.650000000000006 21.939999999999998 38.3 25 40 C25 40.99000000000001 25 41.97999999999999 25 43 C17.10705666681315 43.69849056045902 13.704483836494205 41.275071620006 7.64453125 36.5546875 C2.867283820453622 33.04936967957812 -0.0792239404777888 32.47603751685645 -6 33 C0.6025562083766545 38.761546197043515 6.930116306287687 43.51647103026302 15 47 C14.670000000000016 48.31999999999999 14.340000000000032 49.64 14 51 C8.543686801362867 51.83943279979033 5.702802101269697 49.88639069921507 1.43359375 46.85546875 C-1.1471405058998698 44.887814221023405 -3.670115191146067 42.86047771667667 -6.1875 40.8125 C-11.840496034436796 36.24292206180763 -15.619610369005557 33.836897466718355 -23 34 C-20.58188137350703 36.18522605385944 -18.160682036300216 38.36683178947649 -15.734375 40.54296875 C-14.070974271834189 42.03765311859473 -12.413157039208215 43.538623346880584 -10.765625 45.05078125 C-7.0244324645025245 48.43670550208785 -3.6544795044353577 51.02184621061498 1 53 C0.6700000000000159 54.31999999999999 0.34000000000003183 55.64 0 57 C-8.402724704071318 56.3277820236743 -12.755788248493559 52.49822016876351 -18.375 46.5 C-25.35773251785389 39.31850450976398 -30.993974808353187 36.46324190702069 -41 36 C-40.50371093749999 36.3519140625 -40.00742187499998 36.703828125 -39.49609375 37.06640625 C-35.16259718900636 40.215797488824606 -31.390842983693517 43.53501106748098 -27.67578125 47.38671875 C-25.316455318258704 49.65805117379756 -22.791058471108386 51.29813507859245 -20 53 C-20.329999999999984 53.99000000000001 -20.659999999999968 54.97999999999999 -21 56 C-28.00683256961787 55.854024321466284 -31.110254433225975 52.743928104544196 -36 48 C-44.64231515268381 39.80236772989275 -51.60906428218448 37.56725846565021 -63.41162109375 37.79541015625 C-65.27486450789127 37.84992989876787 -67.13754926467425 37.92302155399342 -69 38 C-69.625 35.625 -69.625 35.625 -70 33 C-67.45663477024186 30.456634770241877 -66.39825323022478 30.75258298605271 -62.875 30.625 C-57.39466819498546 30.229956422967497 -53.67271405444575 28.757837916320973 -49 26 C-48.307773437499975 25.7099609375 -47.61554687500001 25.419921875 -46.90234375 25.12109375 C-44.49512909595944 23.70246827626358 -44.14388807642672 22.52975247671293 -43 20 C-33.69025820388845 6.4636354284538555 -33.69025820388845 6.4636354284538555 -28 3 C-24.125 2.6875 -24.125 2.6875 -21 3 C-21.125 4.75 -21.125 4.75 -22 7 C-23.40818361103311 7.905260892806993 -24.81968812274073 8.805904074647614 -26.25 9.67578125 C-31.66507386345029 13.773348302923331 -35.301094307083304 20.38314320705245 -39 26 C-39.660000000000025 26.659999999999997 -40.31999999999999 27.32 -41 28 C-29.945371964536548 25.621442738271185 -24.45794527966791 20.138639626835015 -17.8671875 11.28515625 C-13.005346513239772 5.334995209718137 -7.929768346145011 -0.20867811437223693 0 0 Z " fill="#0B5D63" transform="translate(388,32)"/>
<path d="M0 0 C3.1566064938532463 1.6193743351366052 5.46595675802314 4.001145647111986 7.9140625 6.515625 C8.44451171875005 7.054775390625 8.974960937499986 7.59392578125 9.521484375 8.1494140625 C19.839817326469984 18.852007276509447 26.468364792246348 29.68922003514504 26.31640625 44.75 C25.906087020242808 51.10621788642092 24.206214080216114 56.99330068906659 19.7109375 61.7265625 C12.451486104395713 67.82309207009486 5.030532968773173 68.88622355467004 -4.18359375 68.4296875 C-11.16828155326516 67.7686760359686 -15.859210846581846 65.50845955220574 -21.2578125 61.06640625 C-25.917080385861368 55.41981731213464 -27.65644125233689 49.696791419867964 -27.5859375 42.453125 C-27.579411621093755 41.67259765624999 -27.57288574218751 40.89207031250001 -27.566162109375 40.087890625 C-27.04291512530915 27.236210314610027 -19.73282430798122 17.897763249036387 -10.8984375 9.078125 C-10.095351562500014 8.204140625 -9.292265625000027 7.330156250000002 -8.46484375 6.4296875 C-7.6798046874999955 5.591796875 -6.894765624999991 4.75390625 -6.0859375 3.890625 C-5.732089843750032 3.5122851562500017 -5.732089843750032 3.5122851562500017 -3.94140625 1.59765625 C-1.8984375 0.078125 -1.8984375 0.078125 0 0 Z M-7.2109375 13.953125 C-15.548051107710307 22.406966437829738 -20.83805621752606 31.01452569394717 -21.2109375 43.140625 C-21.08322131245984 48.83818603304334 -20.38048587403432 52.54211905261715 -16.28125 56.73046875 C-10.217581162347528 62.26063882725815 -5.287465828961672 62.43748387200972 2.83203125 62.35546875 C7.307123178442907 61.975861190956465 10.595215631782253 60.90220240371235 14.1015625 58.078125 C19.967120067015912 50.708578313236444 19.97788302333788 43.098030184659024 19.1015625 34.078125 C16.23915548315165 24.10233203489878 8.713134245573428 15.887900587670309 1.1015625 9.078125 C-3.169768366855692 9.078125 -4.227931014362866 10.97424438778701 -7.2109375 13.953125 Z " fill="#0B5D63" transform="translate(785.8984375,24.921875)"/>
<path d="M0 0 C4.070297536180078 1.5874160391102343 6.599306902844205 4.338452343081535 9.609375 7.44140625 C10.228527832031261 8.071918945312504 10.847680664062494 8.702431640625 11.485595703125 9.35205078125 C16.39771548670194 14.473073091501789 20.44137032820919 19.754813962400952 23.734375 26.06640625 C23.912265625000032 26.37900390625 23.912265625000032 26.37900390625 24.8125 27.9609375 C26.981610633990954 32.486491050008375 27.03332297361544 37.183271141627536 27.109375 42.12890625 C27.12347412109375 42.802038574218756 27.1375732421875 43.4751708984375 27.152099609375 44.168701171875 C27.087297159642162 50.872883724618575 24.934006158839225 56.643123235122275 20.3359375 61.64453125 C12.833647957167358 68.30510050266118 4.6744300098674785 69.00429885600931 -4.96484375 68.55078125 C-11.93864377831079 67.94977476225004 -17.45392264887232 65.35720529859502 -22.203125 60.19140625 C-27.830688419322797 51.66479500860184 -28.79257209108934 43.042160736115335 -27.265625 33.06640625 C-23.923149529050704 22.344009689726995 -17.007151194149344 14.807932444149358 -9.265625 7.06640625 C-8.577265624999995 6.295546874999999 -7.888906249999991 5.524687499999999 -7.1796875 4.73046875 C-6.589296875000002 4.078203125000002 -5.9989062500000045 3.4259375 -5.390625 2.75390625 C-4.898203125000009 2.200898437500001 -4.40578124999999 1.6478906249999987 -3.8984375 1.078125 C-2.265625 0.06640625 -2.265625 0.06640625 0 0 Z M-8.581298828125 14.937255859375 C-17.263011089867803 23.888188763285342 -21.713040207638045 32.98261422484333 -21.609375 45.5390625 C-21.130863436093534 50.449243661449316 -19.67107440857481 53.536475661999475 -16.265625 57.06640625 C-9.16649163861706 62.71673688457008 -2.106715688973793 62.826930180234314 6.734375 62.06640625 C12.986314518059089 60.26050849282123 16.460759189006694 56.80633950431509 19.8125 51.29296875 C22.387201697071248 45.0744095663957 21.434456752886376 37.01180177936269 19.171875 30.81640625 C15.084479710525045 21.969910850751795 8.065676167969798 14.382374465990289 0.734375 8.06640625 C-3.0803626599516747 8.06640625 -5.975432383071649 12.343111710520724 -8.581298828125 14.937255859375 Z " fill="#0B5D63" transform="translate(233.265625,24.93359375)"/>
<path d="M0 0 C4.326488067112791 0.918300173788893 6.625299493260968 3.767582943805646 9.6171875 6.89453125 C10.236340332031205 7.531005859375 10.855493164062523 8.16748046875 11.493408203125 8.8232421875 C20.592889213397143 18.393571918909345 26.691929675088318 28.206383982791834 27.1171875 41.64453125 C26.869630746148232 50.02917086958952 24.941032871071457 56.65869011764282 18.7421875 62.58203125 C10.033147244462839 67.89948831404615 1.6953101277252927 68.26845350018795 -8.2578125 67.58203125 C-14.552747867614414 66.0247148997407 -18.738231920325404 61.88881318321654 -22.2578125 56.58203125 C-26.46469813184791 48.72917807055059 -26.591562542142697 39.353675777605616 -24.6015625 30.7421875 C-20.715869339493224 20.1402746956863 -12.901150698585639 11.654936905482913 -5.2578125 3.58203125 C-5.018046874999982 3.287480468750001 -5.018046874999982 3.287480468750001 -3.8046875 1.796875 C-2.2578125 0.58203125 -2.2578125 0.58203125 0 0 Z M-3.2734375 10.3828125 C-12.61809498275801 20.887383761212256 -19.84214739195386 30.40912118374616 -19.50390625 44.93359375 C-19.016094793803177 50.183374183356065 -17.34799342762915 53.87668335118467 -13.3203125 57.39453125 C-6.932073019878544 61.95755945008676 -2.046860549388043 62.236229511365934 5.7421875 61.58203125 C10.878623005920872 60.39527358798219 14.426451888087968 57.63459699789246 17.7421875 53.58203125 C21.34560269480812 47.2449907349926 21.94943780227254 41.02907756119606 20.05078125 34.03515625 C16.345170099758207 24.05016218826062 10.052999031056856 15.278170826451486 1.7421875 8.58203125 C-1.2578125 8.58203125 -1.2578125 8.58203125 -3.2734375 10.3828125 Z " fill="#0B5D63" transform="translate(508.2578125,25.41796875)"/>
<path d="M0 0 C4.108994205397039 1.4369937600334879 6.578806375474869 4.090811933294443 9.59375 7.16015625 C10.208874511718705 7.781484374999998 10.823999023437409 8.402812499999996 11.457763671875 9.04296875 C21.74448096429228 19.810373766362027 26.25157610947963 30.43842804033919 26.125 45.421875 C25.491601670570162 51.96459183467789 22.807177958590728 57.429639400674915 17.96875 61.91015625 C9.241144653451101 67.557430297767 0.8892067941005735 67.88018178259726 -9.21875 66.97265625 C-15.911052997412298 65.35305780770388 -20.45881215362101 60.56282839197078 -24.21875 54.97265625 C-27.904630601203053 47.83616402213863 -28.34714318978604 39.9830058851509 -26.59765625 32.21484375 C-23.776795703738344 23.413758845663914 -10.707365663178507 -0.13195697120114502 0 0 Z M-4.78125 10.16015625 C-13.594315970209664 19.214896789776567 -20.40704430719461 28.878164432123107 -20.65625 41.91015625 C-20.562906604127193 48.17749854431348 -19.614694348214698 52.408561025077645 -15.21875 56.97265625 C-8.976033827326319 61.69275872202164 -1.7851206067145995 61.671090459850575 5.78125 60.97265625 C12.015527919199258 59.122483448173085 15.505859482652113 55.71550876766642 18.859375 50.19921875 C21.41711424633172 44.0216281974194 20.492604725971432 35.95933692295581 18.28125 29.78515625 C15.694850753997798 24.146257540518178 11.8312967564691 19.618519940847207 7.78125 14.97265625 C7.119960937500082 14.178593750000005 6.458671874999936 13.384531250000002 5.77734375 12.56640625 C2.296290850095602 8.438560640092561 2.296290850095602 8.438560640092561 0.78125 6.97265625 C-2.0663873083301496 6.97265625 -2.763742216393439 8.183406199395577 -4.78125 10.16015625 Z " fill="#0B5D63" transform="translate(1064.21875,26.02734375)"/>
<path d="M0 0 C2.375 1.0625 2.375 1.0625 4 3 C4.5625 6.4375 4.5625 6.4375 4 10 C1.3506654353158751 13.038942588902387 -0.17930396990522013 13.9034475258712 -4.1875 14.375 C-7 14 -7 14 -9 12 C-9.30078125 9.94140625 -9.30078125 9.94140625 -9.3125 7.5625 C-9.329257812499975 6.780039062500002 -9.346015625000007 5.997578125000004 -9.36328125 5.19140625 C-8.475138407721943 -0.16610057277403456 -4.818112473713143 -0.5899729559648748 0 0 Z " fill="#E28E2B" transform="translate(297,57)"/>
<path d="M0 0 C2.375 1.0625 2.375 1.0625 4 3 C4.430606574295098 6.444852594361542 4.633352866888799 8.845062419202677 2.9375 11.9375 C-0.11976176457960719 13.614062903156508 -2.5906288038263483 13.36528977101861 -6 13 C-7.9375 11.9375 -7.9375 11.9375 -9 10 C-9.63316582914581 4.090452261306531 -9.63316582914581 4.090452261306531 -7.875 1.0625 C-5.098088749157341 -0.5110830421441861 -3.137706732658671 -0.3842089876724799 0 0 Z " fill="#E28E2B" transform="translate(1126,57)"/>
<path d="M0 0 C2.4375 1.5625 2.4375 1.5625 4 4 C3.7857142857143344 10.214285714285722 3.7857142857143344 10.214285714285722 1 13 C-5.00458715596335 13.545871559633028 -5.00458715596335 13.545871559633028 -7.9375 11.9375 C-9.614062903156537 8.880238235420492 -9.365289771018638 6.409371196173737 -9 3 C-6.845325427119178 -0.7108284310725352 -4.0079495577460875 -0.5725642225351635 0 0 Z " fill="#E28E2B" transform="translate(1003,57)"/>
<path d="M0 0 C2.4375 1.5625 2.4375 1.5625 4 4 C3.7857142857143344 10.214285714285722 3.7857142857143344 10.214285714285722 1 13 C-5.00458715596335 13.545871559633028 -5.00458715596335 13.545871559633028 -7.9375 11.9375 C-9.614062903156537 8.880238235420492 -9.365289771018638 6.409371196173737 -9 3 C-6.845325427119178 -0.7108284310725352 -4.0079495577460875 -0.5725642225351635 0 0 Z " fill="#E28E2B" transform="translate(726,57)"/>
<path d="M0 0 C1.875 1.0625 1.875 1.0625 3 3 C3.3899168824518995 7.367069083461402 3.4632406879544817 9.305138968068292 1 13 C-2.007221113246686 13.334135679249627 -4.101517647114207 13.53346300973358 -7 13 C-9.456360807101134 10.927445569008412 -9.888645809679389 9.63630965897498 -10.4375 6.5 C-9.408584376217362 0.6204821498134621 -5.518677746386771 -0.821930728185265 0 0 Z " fill="#E28E2B" transform="translate(175,57)"/>
<path d="M0 0 C3.375 0.875 3.375 0.875 5.375 2.875 C5.920871559633042 8.879587155963307 5.920871559633042 8.879587155963307 4.3125 11.8125 C1.2552382354205065 13.489062903156508 -1.2156288038262346 13.24028977101861 -4.625 12.875 C-6.5625 11.75 -6.5625 11.75 -7.625 9.875 C-8.163526177904487 6.259181376926854 -8.047362250553306 4.533885110863153 -6.0625 1.4375 C-3.625 -0.125 -3.625 -0.125 0 0 Z " fill="#E28E2B" transform="translate(848.625,57.125)"/>
<path d="M0 0 C3.0625 0.5 3.0625 0.5 5.5 2.0625 C7.0625 4.5 7.0625 4.5 6.9375 8.125 C6.0625 11.5 6.0625 11.5 4.0625 13.5 C-1.989901746724854 14.050218340611352 -1.989901746724854 14.050218340611352 -4.875 12.375 C-6.448583042144151 9.598088749157313 -6.321708987672537 7.637706732658614 -5.9375 4.5 C-4.3758188425465505 1.203117556487193 -3.626027665652373 0.6171961984089052 0 0 Z " fill="#E28E2B" transform="translate(569.9375,56.5)"/>
<path d="M0 0 C1.875 1.0625 1.875 1.0625 3 3 C3.365289771018638 6.409371196173737 3.61406290315648 8.880238235420492 1.9375 11.9375 C-1.0788471131667166 13.591625836252703 -3.6366660813299063 13.305757628970014 -7 13 C-9 11 -9 11 -9.3125 7.0625 C-9.233921801244094 4.515641910911995 -9.13665952925652 3.242950274233813 -7.875 1 C-5.1018437602159565 -0.47901666121814657 -3.0881587493084908 -0.38601984366356135 0 0 Z " fill="#E28E2B" transform="translate(450,57)"/>
<path d="M0 0 C0 1.3200000000000003 0 2.6400000000000006 0 4 C-0.4099218750000091 4.199160156250002 -0.4099218750000091 4.199160156250002 -2.484375 5.20703125 C-3.023203125000009 5.471933593750002 -3.023203125000009 5.471933593750002 -5.75 6.8125 C-6.817343749999964 7.334570312499999 -7.884687500000041 7.856640624999997 -8.984375 8.39453125 C-12 10 -12 10 -14.2578125 11.71484375 C-16 13 -16 13 -18.125 12.75 C-20 12 -20 12 -22 11 C-20.608860053213107 9.72403068061596 -19.211855866552014 8.454453517025037 -17.8125 7.1875 C-17.035195312500036 6.4798046875 -16.25789062499996 5.772109374999999 -15.45703125 5.04296875 C-10.00889063001216 0.5129567559560755 -6.913943963910469 -0.3515564727412084 0 0 Z " fill="#0B5D63" transform="translate(949,42)"/>
<path d="M0 0 C-0.18562500000001592 0.7837499999999977 -0.3712500000000034 1.5675000000000026 -0.5625 2.375 C-1 5 -1 5 0 7 C2.28515625 7.4140625 2.28515625 7.4140625 5.0625 7.625 C5.981601562500003 7.699765624999998 6.900703125000007 7.7745312499999955 7.84765625 7.8515625 C8.557929687500007 7.900546875000003 9.268203125000014 7.949531250000007 10 8 C10 8.329999999999998 10 8.659999999999997 10 9 C7.2705646332812535 9.054167405293214 4.542214357899184 9.09375224774277 1.8125 9.125 C1.0435742187499955 9.141757812500003 0.2746484374999909 9.158515625000007 -0.517578125 9.17578125 C-4.814943395311801 9.212668505539156 -8.079018307965399 8.995850400354286 -12 7 C-12 6.009999999999998 -12 5.019999999999996 -12 4 C-13.650000000000006 4 -15.299999999999997 4 -17 4 C-17 3.6700000000000017 -17 3.3400000000000034 -17 3 C-16.156953125 2.867226562500001 -15.313906250000002 2.7344531250000017 -14.4453125 2.59765625 C-13.349609375 2.4210546875000034 -12.25390625 2.2444531249999997 -11.125 2.0625 C-10.5797265625 1.9754882812500014 -10.5797265625 1.9754882812500014 -7.8203125 1.53515625 C-4.8100856027758 0.963963611607042 -3.095565713303614 0 0 0 Z " fill="#0B5D63" transform="translate(131,57)"/>
<path d="M0 0 C0.6599999999999682 0 1.32000000000005 0 2 0 C2.0271769187405653 2.0624261666458636 2.046475803785029 4.1249570300443565 2.0625 6.1875 C2.0741015625000045 7.3360546874999955 2.085703125000009 8.484609375000005 2.09765625 9.66796875 C2.011928315895261 12.593005861653054 1.6784902265679875 15.16316291096382 1 18 C0.19562499999994998 17.174999999999997 -0.6087499999999864 16.349999999999994 -1.4375 15.5 C-4 13 -4 13 -5 13 C-5 9.370000000000005 -5 5.739999999999995 -5 2 C-4.669999999999959 2.4949999999999974 -4.669999999999959 2.4949999999999974 -3 5 C-2.340000000000032 5 -1.67999999999995 5 -1 5 C-0.6699999999999591 3.3500000000000014 -0.34000000000003183 1.7000000000000028 0 0 Z " fill="#0B5D63" transform="translate(810,60)"/>
<path d="M0 0 C3.1611577555190706 1.3698350273916233 3.9927091973152073 1.9890637959729744 6 5 C5.7578125 8.35546875 5.7578125 8.35546875 5.125 12.1875 C4.921328124999945 13.459804687499997 4.717656249999891 14.732109374999993 4.5078125 16.04296875 C4.340234374999909 17.018789062500005 4.1726562500000455 17.994609374999996 4 19 C3.6700000000000728 19 3.339999999999918 19 3 19 C2.8762500000000273 18.0925 2.7525000000000546 17.185000000000002 2.625 16.25 C2.0789032258069255 13.410296774195459 1.4273619738901289 11.474094088076143 0 9 C-1.6634283703749588 10.663428370374874 -1.3604809654736982 12.78257089605917 -1.5625 15.0625 C-1.6462890625000455 15.981601562500003 -1.730078125000091 16.900703125000007 -1.81640625 17.84765625 C-1.8769921875000364 18.557929687500007 -1.9375781250000728 19.268203125 -2 20 C-2.3299999999999272 20 -2.660000000000082 20 -3 20 C-3.3689719035853614 12.688890058588314 -2.8155272582080215 6.787431783180253 0 0 Z " fill="#0B5D63" transform="translate(1040,52)"/>
</svg>
