<?xml version="1.0" encoding="UTF-8"?>
<!-- Generator: visioncortex VTracer 0.6.12 -->
<svg version="1.1" xmlns="http://www.w3.org/2000/svg" width="249" height="261">

<path d="M0 0 C1.314199218749991 -0.012246093750000853 2.628398437499982 -0.024492187500001705 3.982421875 -0.037109375 C5.247636718750016 -0.039042968749999574 6.512851562500003 -0.04097656249999915 7.81640625 -0.04296875 C8.966975097656245 -0.047077636718750426 10.117543945312491 -0.05118652343750085 11.302978515625 -0.055419921875 C15.585743918367655 0.2764868914071066 18.38620592481101 1.1362059248109908 21.4375 4.1875 C21.791721844418475 6.950430386463985 21.956020992314393 8.511750061628966 20.2265625 10.765625 C18.01327090526894 12.524660241227295 16.257651510574362 12.904736017541218 13.5 13.5 C2.577697280606742 16.295417846388247 -6.19118413157851 21.74957126673352 -14.5625 29.1875 C-15.199296875000002 29.741796875 -15.836093750000003 30.296093749999997 -16.4921875 30.8671875 C-21.5892451744527 35.60178773982495 -25.08597487282546 41.201540668318174 -28.5625 47.1875 C-29.027851562500004 47.968671875 -29.493203124999994 48.74984375 -29.97265625 49.5546875 C-38.59589868508188 65.21892605180011 -40.731671522695876 86.02586188654521 -36.45703125 103.3359375 C-35.15239163582855 107.76748291247804 -33.473814843424776 111.98580174253249 -31.5625 116.1875 C-31.032695312499996 117.36570312499998 -30.502890625000006 118.54390625000002 -29.95703125 119.7578125 C-20.726470456836253 138.30663537652384 -4.952887295062737 151.64498171961043 14.5625 158.33984375 C33.994498204451986 164.0691149597365 53.823641888923646 161.89037102406488 71.609375 152.515625 C76.21832013015623 149.92452649399178 80.43677195319597 147.36166745460417 84.3125 143.75 C86.78154992407408 141.4746010503631 87.26791579194361 141.2094831380814 90.8125 140.75 C93.4375 141.1875 93.4375 141.1875 94.4375 142.1875 C95.30796775467604 154.58784766310427 86.5634250447988 166.97401519530627 78.93359375 176.22265625 C62.475375709355404 195.0686258949494 38.66876900596449 209.7782389928961 13.19091796875 211.575439453125 C9.63543175547727 211.7353558732471 6.086484719513521 211.75101441349568 2.528076171875 211.708984375 C0.3710957404445878 211.68746104151936 -1.7825696261259054 211.70897403930667 -3.939453125 211.734375 C-13.74285746125696 211.7540773266661 -22.223437251769298 210.20614394278348 -31.5625 207.1875 C-32.333439941406255 206.9414501953125 -33.104379882812495 206.695400390625 -33.898681640625 206.44189453125 C-49.82339859900088 201.018693035634 -62.85245704585952 192.1295041875217 -74.5625 180.1875 C-74.98531249999999 179.7582421875 -74.98531249999999 179.7582421875 -77.125 177.5859375 C-98.3525919143475 154.99576367223156 -105.63605322095717 126.38988761908206 -104.90234375 96.140625 C-104.04565438243246 76.88493088769897 -96.29985015063934 57.3893631646921 -84.5625 42.1875 C-84.1566064453125 41.65962890624999 -83.750712890625 41.1317578125 -83.33251953125 40.587890625 C-62.7089018854775 14.103967626364025 -33.31780303152087 0.016388491407536065 0 0 Z " fill="#EFB8C3" transform="translate(129.5625,24.8125)"/>
<path d="M0 0 C1.314199218749991 -0.012246093750000853 2.628398437499982 -0.024492187500001705 3.982421875 -0.037109375 C5.247636718750016 -0.039042968749999574 6.512851562500003 -0.04097656249999915 7.81640625 -0.04296875 C8.966975097656245 -0.047077636718750426 10.117543945312491 -0.05118652343750085 11.302978515625 -0.055419921875 C15.585743918367655 0.2764868914071066 18.38620592481101 1.1362059248109908 21.4375 4.1875 C21.791721844418475 6.950430386463985 21.956020992314393 8.511750061628966 20.2265625 10.765625 C18.01327090526894 12.524660241227295 16.257651510574362 12.904736017541218 13.5 13.5 C2.577697280606742 16.295417846388247 -6.19118413157851 21.74957126673352 -14.5625 29.1875 C-15.199296875000002 29.741796875 -15.836093750000003 30.296093749999997 -16.4921875 30.8671875 C-21.5892451744527 35.60178773982495 -25.08597487282546 41.201540668318174 -28.5625 47.1875 C-29.027851562500004 47.968671875 -29.493203124999994 48.74984375 -29.97265625 49.5546875 C-38.59589868508188 65.21892605180011 -40.731671522695876 86.02586188654521 -36.45703125 103.3359375 C-35.15239163582855 107.76748291247804 -33.473814843424776 111.98580174253249 -31.5625 116.1875 C-31.032695312499996 117.36570312499998 -30.502890625000006 118.54390625000002 -29.95703125 119.7578125 C-20.726470456836253 138.30663537652384 -4.952887295062737 151.64498171961043 14.5625 158.33984375 C33.994498204451986 164.0691149597365 53.823641888923646 161.89037102406488 71.609375 152.515625 C76.21832013015623 149.92452649399178 80.43677195319597 147.36166745460417 84.3125 143.75 C86.78154992407408 141.4746010503631 87.26791579194361 141.2094831380814 90.8125 140.75 C93.4375 141.1875 93.4375 141.1875 94.4375 142.1875 C95.30796775467604 154.58784766310427 86.5634250447988 166.97401519530627 78.93359375 176.22265625 C62.475375709355404 195.0686258949494 38.66876900596449 209.7782389928961 13.19091796875 211.575439453125 C9.63543175547727 211.7353558732471 6.086484719513521 211.75101441349568 2.528076171875 211.708984375 C0.3710957404445878 211.68746104151936 -1.7825696261259054 211.70897403930667 -3.939453125 211.734375 C-13.74285746125696 211.7540773266661 -22.223437251769298 210.20614394278348 -31.5625 207.1875 C-32.333439941406255 206.9414501953125 -33.104379882812495 206.695400390625 -33.898681640625 206.44189453125 C-49.82339859900088 201.018693035634 -62.85245704585952 192.1295041875217 -74.5625 180.1875 C-74.98531249999999 179.7582421875 -74.98531249999999 179.7582421875 -77.125 177.5859375 C-98.3525919143475 154.99576367223156 -105.63605322095717 126.38988761908206 -104.90234375 96.140625 C-104.04565438243246 76.88493088769897 -96.29985015063934 57.3893631646921 -84.5625 42.1875 C-84.1566064453125 41.65962890624999 -83.750712890625 41.1317578125 -83.33251953125 40.587890625 C-62.7089018854775 14.103967626364025 -33.31780303152087 0.016388491407536065 0 0 Z M-61.5625 33.1875 C-61.84673828125 33.398906249999996 -61.84673828125 33.398906249999996 -63.28515625 34.46875 C-79.40741211515717 46.970168259507204 -90.72918445718003 69.23743780079738 -93.5625 89.1875 C-93.77133876285204 93.37218581623972 -93.79045562755462 97.5537972518639 -93.802734375 101.743408203125 C-93.81235564274314 103.72033819264556 -93.84351444242532 105.69712546351474 -93.875 107.673828125 C-93.97750928730477 133.21145432480077 -83.13774995184528 156.15109223796213 -65.6875 174.4375 C-54.33612331284367 185.2009567790566 -39.941383796241155 194.466802307361 -24.5625 198.1875 C-23.453906250000003 198.463359375 -22.345312500000006 198.73921875 -21.203125 199.0234375 C-3.081218409037362 202.9898789024396 13.881588743654277 202.1280088761266 31.4375 196.1875 C32.54609375000001 195.8149609375 33.654687499999994 195.442421875 34.796875 195.05859375 C50.58448959620523 189.06514746810726 63.893159855405656 178.21061811710297 74.4375 165.1875 C74.10749999999999 164.5275 73.7775 163.8675 73.4375 163.1875 C72.80585937500001 163.5136328125 72.17421875 163.839765625 71.5234375 164.17578125 C54.22234590759675 172.62689083188 31.819633761007992 174.54098070151832 13.1953125 169.15234375 C12.285234375000016 168.8339453125 11.375156250000003 168.515546875 10.4375 168.1875 C9.951523437499986 168.02314453125 9.951523437499986 168.02314453125 7.4921875 167.19140625 C-14.203578352005124 159.00592801079702 -31.259228237884898 142.65907335183164 -40.930419921875 121.725830078125 C-44.10327244243935 114.42901040910846 -45.930619090293774 106.95967856995676 -47.5625 99.1875 C-47.736845703125 98.54482177734376 -47.91119140625 97.9021435546875 -48.0908203125 97.239990234375 C-52.61354594229353 77.55957906994735 -45.76926265963648 54.32102871432521 -35.390625 37.58203125 C-28.904769577159158 27.628504700587058 -21.400743998673676 20.497748211035656 -11.6875 13.75390625 C-11.336874999999992 13.495449218749997 -11.336874999999992 13.495449218749997 -9.5625 12.1875 C-9.5625 11.857500000000002 -9.5625 11.527500000000003 -9.5625 11.1875 C-28.839355620973024 10.640842900300768 -47.15271369122273 21.277657124909233 -61.5625 33.1875 Z " fill="#0B5D63" transform="translate(129.5625,24.8125)"/>
<path d="M0 0 C0.6666666666666714 2.6666666666666714 1.3333333333333286 5.333333333333329 2 8 C1.6700000000000017 8.164999999999992 1.6700000000000017 8.164999999999992 0 9 C0.9899999999999949 9 1.980000000000004 9 3 9 C3 11.969999999999999 3 14.939999999999998 3 18 C2.010000000000005 18 1.019999999999996 18 0 18 C-2.353582511830254 20.35358251183027 -2.278719039775382 20.92968394135079 -2.4140625 24.1328125 C-2.4527343750000057 24.9384765625 -2.491406249999997 25.744140625 -2.53125 26.57421875 C-2.562187499999993 27.415976562499992 -2.5931250000000006 28.257734375 -2.625 29.125 C-2.6636718750000057 29.974492187500005 -2.702343749999997 30.823984374999995 -2.7421875 31.69921875 C-2.8365649420520924 33.799116835659106 -2.9193758569746393 35.899528905391804 -3 38 C-3.3299999999999983 38 -3.6599999999999966 38 -4 38 C-4.500469465689875 24.681951440808476 -3.483217329131989 12.875464055898604 0 0 Z " fill="#0B5D63" transform="translate(84,82)"/>
<path d="M0 0 C-0.3299999999999841 1.3199999999999932 -0.6599999999999966 2.6399999999999864 -1 4 C-4.916526315323495 4.087143157403943 -8.832803109103168 4.1404398542855745 -12.75 4.1875 C-13.861171874999997 4.212636718749991 -14.972343749999993 4.23777343750001 -16.1171875 4.263671875 C-17.187109375000006 4.273339843749994 -18.25703125000001 4.283007812499989 -19.359375 4.29296875 C-20.343896484374994 4.308679199218744 -21.32841796874999 4.324389648437489 -22.3427734375 4.340576171875 C-25.392824091457868 3.9496518184873537 -26.741137229259806 3.0315705624810505 -29 1 C-28.384794921875 0.9749438476562489 -27.769589843749998 0.9498876953124977 -27.1357421875 0.924072265625 C-24.340298436114864 0.8078151273412573 -21.545167020160108 0.6852235847645716 -18.75 0.5625 C-17.781914062499993 0.5231835937499909 -16.813828124999986 0.48386718750001023 -15.81640625 0.443359375 C-14.8818359375 0.4014648437500057 -13.947265625 0.35957031250001137 -12.984375 0.31640625 C-12.125537109374989 0.2797485351562443 -11.266699218750006 0.24309082031248863 -10.3818359375 0.205322265625 C-8 0 -8 0 -5.8291015625 -0.547119140625 C-3.588361452776013 -1.1019206493727438 -2.170579796109422 -0.6976863630351602 0 0 Z " fill="#EFB8C3" transform="translate(186,196)"/>
</svg>
